<?xml version="1.0" standalone="no"?>
<!DOCTYPE svg PUBLIC "-//W3C//DTD SVG 20010904//EN"
 "http://www.w3.org/TR/2001/REC-SVG-20010904/DTD/svg10.dtd">
<svg version="1.0" xmlns="http://www.w3.org/2000/svg"
width="24" height="24" viewBox="0 0 24 24" fill="none" 
 preserveAspectRatio="xMidYMid meet">
<metadata>
Created by potrace 1.10, written by Peter Selinger 2001-2011
</metadata>
<g transform="translate(0.000000,126.000000) scale(0.100000,-0.100000)"
fill="#000000" stroke="none">
<path d="M0 630 l0 -630 760 0 760 0 0 630 0 630 -760 0 -760 0 0 -630z m1510
0 l0 -620 -750 0 -750 0 0 620 0 620 750 0 750 0 0 -620z"/>
<path d="M110 1000 l0 -70 645 0 645 0 0 70 0 70 -645 0 -645 0 0 -70z m1270
0 l0 -50 -625 0 -625 0 0 50 0 50 625 0 625 0 0 -50z"/>
<path d="M110 770 l0 -70 645 0 645 0 0 70 0 70 -645 0 -645 0 0 -70z m1270 0
l0 -50 -625 0 -625 0 0 50 0 50 625 0 625 0 0 -50z"/>
<path d="M110 550 l0 -70 645 0 645 0 0 70 0 70 -645 0 -645 0 0 -70z m1270 0
l0 -50 -625 0 -625 0 0 50 0 50 625 0 625 0 0 -50z"/>
<path d="M110 330 l0 -70 645 0 645 0 0 70 0 70 -645 0 -645 0 0 -70z m1270 0
l0 -50 -625 0 -625 0 0 50 0 50 625 0 625 0 0 -50z"/>
</g>
</svg>
