<?xml version="1.0" standalone="yes"?>
<svg xmlns="http://www.w3.org/2000/svg" width="160" height="160">
<path style="fill:#ffffff; stroke:none;" d="M0 0L0 160L160 160L160 0L0 0z"/>
<path style="fill:#a1a1a1; stroke:none;" d="M53 44L54 45L53 44z"/>
<path style="fill:#606060; stroke:none;" d="M54 44L55 45L54 44z"/>
<path style="fill:#a1a1a1; stroke:none;" d="M69 44L70 45L69 44z"/>
<path style="fill:#606060; stroke:none;" d="M70.6667 44.3333L71.3333 44.6667L70.6667 44.3333z"/>
<path style="fill:#313131; stroke:none;" d="M72 44L73 45L72 44z"/>
<path style="fill:#010101; stroke:none;" d="M57 49C54.1683 44.0577 50.5713 47.2199 47 50L47 51C50.781 57.6594 40.5936 67.4065 39.3256 75C35.2471 99.4237 52.0676 120.983 77 121L77 127L87 127C87.2742 118.625 95.0424 114.408 101 121L102 121L108 116L104 110L104 109C110.965 103.229 112.008 83.984 121 85L121 75C110.982 74.6738 108.228 59.5437 100.999 53.1852C87.6961 41.4831 72.294 43.826 57 49z"/>
<path style="fill:#313131; stroke:none;" d="M80 44L81 45L80 44z"/>
<path style="fill:#606060; stroke:none;" d="M81.6667 44.3333L82.3333 44.6667L81.6667 44.3333z"/>
<path style="fill:#a1a1a1; stroke:none;" d="M83.6667 44.3333L84.3333 44.6667L83.6667 44.3333z"/>
<path style="fill:#606060; stroke:none;" d="M52 45L53 46L52 45z"/>
<path style="fill:#a1a1a1; stroke:none;" d="M55 45L56 46L55 45M65 45L66 46L65 45z"/>
<path style="fill:#606060; stroke:none;" d="M66 45L67 46L66 45M86 45L87 46L86 45z"/>
<path style="fill:#a1a1a1; stroke:none;" d="M87 45L88 46L87 45z"/>
<path style="fill:#313131; stroke:none;" d="M51 46L52 47L51 46z"/>
<path style="fill:#a1a1a1; stroke:none;" d="M56 46L57 47L56 46M62 46L63 47L62 46z"/>
<path style="fill:#606060; stroke:none;" d="M63 46L64 47L63 46z"/>
<path style="fill:#313131; stroke:none;" d="M89 46L90 47L89 46z"/>
<path style="fill:#a1a1a1; stroke:none;" d="M90 46L91 47L90 46z"/>
<path style="fill:#313131; stroke:none;" d="M50 47L51 48L50 47z"/>
<path style="fill:#a1a1a1; stroke:none;" d="M60 47L61 48L60 47z"/>
<path style="fill:#313131; stroke:none;" d="M61 47L62 48L61 47z"/>
<path style="fill:#606060; stroke:none;" d="M92 47L93 48L92 47z"/>
<path style="fill:#a1a1a1; stroke:none;" d="M48 48L49 49L48 48z"/>
<path style="fill:#313131; stroke:none;" d="M57 48L58 49L57 48z"/>
<path style="fill:#606060; stroke:none;" d="M58 48L59 49L58 48M94 48L95 49L94 48z"/>
<path style="fill:#a1a1a1; stroke:none;" d="M47 49L48 50L47 49M96 49L97 50L96 49M46 50L47 51L46 50z"/>
<path style="fill:#313131; stroke:none;" d="M97 50L98 51L97 50z"/>
<path style="fill:#606060; stroke:none;" d="M47 51L48 52L47 51z"/>
<path style="fill:#a1a1a1; stroke:none;" d="M99 51L100 52L99 51z"/>
<path style="fill:#313131; stroke:none;" d="M48 52L49 53L48 52z"/>
<path style="fill:#606060; stroke:none;" d="M100 52L101 53L100 52z"/>
<path style="fill:#313131; stroke:none;" d="M49 53L50 54L49 53z"/>
<path style="fill:#606060; stroke:none;" d="M101 53L102 54L101 53z"/>
<path style="fill:#313131; stroke:none;" d="M102 54L103 55L102 54z"/>
<path style="fill:#606060; stroke:none;" d="M49 55L50 56L49 55z"/>
<path style="fill:#313131; stroke:none;" d="M103 55L104 56L103 55z"/>
<path style="fill:#606060; stroke:none;" d="M48 56L49 57L48 56z"/>
<path style="fill:#313131; stroke:none;" d="M104 56L105 57L104 56z"/>
<path style="fill:#606060; stroke:none;" d="M47 57L48 58L47 57M105 57L106 58L105 57z"/>
<path style="fill:#a1a1a1; stroke:none;" d="M46 58L47 59L46 58z"/>
<path style="fill:#606060; stroke:none;" d="M106 58L107 59L106 58z"/>
<path style="fill:#a1a1a1; stroke:none;" d="M107 59L108 60L107 59z"/>
<path style="fill:#313131; stroke:none;" d="M45 60L46 61L45 60z"/>
<path style="fill:#606060; stroke:none;" d="M44 61L45 62L44 61M108 61L109 62L108 61z"/>
<path style="fill:#a1a1a1; stroke:none;" d="M109 62L110 63L109 62z"/>
<path style="fill:#606060; stroke:none;" d="M43 63L44 64L43 63z"/>
<path style="fill:#313131; stroke:none;" d="M109 63L110 64L109 63z"/>
<path style="fill:#a1a1a1; stroke:none;" d="M42 64L43 65L42 64M110 64L111 65L110 64z"/>
<path style="fill:#313131; stroke:none;" d="M42 65L43 66L42 65z"/>
<path style="fill:#a1a1a1; stroke:none;" d="M41 66L42 67L41 66M111 66L112 67L111 66z"/>
<path style="fill:#606060; stroke:none;" d="M41 67L42 68L41 67z"/>
<path style="fill:#313131; stroke:none;" d="M111 67L112 68L111 67z"/>
<path style="fill:#a1a1a1; stroke:none;" d="M112 68L113 69L112 68M40 69L41 70L40 69z"/>
<path style="fill:#606060; stroke:none;" d="M112 69L113 70L112 69z"/>
<path style="fill:#313131; stroke:none;" d="M40 70L41 71L40 70z"/>
<path style="fill:#a1a1a1; stroke:none;" d="M113 71L114 72L113 71M39 72L40 73L39 72z"/>
<path style="fill:#606060; stroke:none;" d="M113 72L114 73L113 72M39 73L40 74L39 73z"/>
<path style="fill:#313131; stroke:none;" d="M113 73L114 74L113 73z"/>
<path style="fill:#a1a1a1; stroke:none;" d="M114 74L114 75L117 75L114 74z"/>
<path style="fill:#606060; stroke:none;" d="M121 75L121 79L122 79L121 75z"/>
<path style="fill:#a1a1a1; stroke:none;" d="M38.3333 76.6667L38.6667 77.3333L38.3333 76.6667z"/>
<path style="fill:#606060; stroke:none;" d="M38.3333 78.6667L38.6667 79.3333L38.3333 78.6667z"/>
<path style="fill:#a1a1a1; stroke:none;" d="M121 79L121 85L122 85L121 79z"/>
<path style="fill:#313131; stroke:none;" d="M38 80L38 86L39 86L38 80M115 84L115 85L119 85L115 84z"/>
<path style="fill:#606060; stroke:none;" d="M38.3333 86.6667L38.6667 87.3333L38.3333 86.6667z"/>
<path style="fill:#313131; stroke:none;" d="M114.333 86.6667L114.667 87.3333L114.333 86.6667z"/>
<path style="fill:#a1a1a1; stroke:none;" d="M38.3333 88.6667L38.6667 89.3333L38.3333 88.6667z"/>
<path style="fill:#606060; stroke:none;" d="M114 88L115 89L114 88z"/>
<path style="fill:#a1a1a1; stroke:none;" d="M114.333 89.6667L114.667 90.3333L114.333 89.6667z"/>
<path style="fill:#313131; stroke:none;" d="M39 91L40 92L39 91z"/>
<path style="fill:#606060; stroke:none;" d="M39 92L40 93L39 92z"/>
<path style="fill:#313131; stroke:none;" d="M113 92L114 93L113 92z"/>
<path style="fill:#a1a1a1; stroke:none;" d="M39 93L40 94L39 93z"/>
<path style="fill:#606060; stroke:none;" d="M113 93L114 94L113 93z"/>
<path style="fill:#a1a1a1; stroke:none;" d="M113 94L114 95L113 94z"/>
<path style="fill:#313131; stroke:none;" d="M40 95L41 96L40 95z"/>
<path style="fill:#a1a1a1; stroke:none;" d="M40 96L41 97L40 96z"/>
<path style="fill:#606060; stroke:none;" d="M112 96L113 97L112 96z"/>
<path style="fill:#a1a1a1; stroke:none;" d="M112 97L113 98L112 97z"/>
<path style="fill:#606060; stroke:none;" d="M41 98L42 99L41 98z"/>
<path style="fill:#313131; stroke:none;" d="M111 98L112 99L111 98z"/>
<path style="fill:#a1a1a1; stroke:none;" d="M111 99L112 100L111 99z"/>
<path style="fill:#606060; stroke:none;" d="M42 100L43 101L42 100z"/>
<path style="fill:#313131; stroke:none;" d="M110 100L111 101L110 100z"/>
<path style="fill:#a1a1a1; stroke:none;" d="M42 101L43 102L42 101M110 101L111 102L110 101z"/>
<path style="fill:#606060; stroke:none;" d="M43 102L44 103L43 102z"/>
<path style="fill:#313131; stroke:none;" d="M109 102L110 103L109 102z"/>
<path style="fill:#a1a1a1; stroke:none;" d="M109 103L110 104L109 103M44 104L45 105L44 104z"/>
<path style="fill:#606060; stroke:none;" d="M108 104L109 105L108 104M45 105L46 106L45 105z"/>
<path style="fill:#313131; stroke:none;" d="M107 105L108 106L107 105M46 106L47 107L46 106z"/>
<path style="fill:#a1a1a1; stroke:none;" d="M46 107L47 108L46 107M106 107L107 108L106 107M47 108L48 109L47 108z"/>
<path style="fill:#606060; stroke:none;" d="M105 108L106 109L105 108z"/>
<path style="fill:#a1a1a1; stroke:none;" d="M48 109L49 110L48 109z"/>
<path style="fill:#313131; stroke:none;" d="M104 109L105 110L104 109z"/>
<path style="fill:#606060; stroke:none;" d="M49 110L50 111L49 110z"/>
<path style="fill:#a1a1a1; stroke:none;" d="M105 110L106 111L105 110M50 111L51 112L50 111M51 112L52 113L51 112z"/>
<path style="fill:#313131; stroke:none;" d="M106 112L107 113L106 112z"/>
<path style="fill:#a1a1a1; stroke:none;" d="M52 113L53 114L52 113z"/>
<path style="fill:#606060; stroke:none;" d="M107 113L108 114L107 113z"/>
<path style="fill:#313131; stroke:none;" d="M54 114L55 115L54 114z"/>
<path style="fill:#606060; stroke:none;" d="M108 114L109 115L108 114z"/>
<path style="fill:#a1a1a1; stroke:none;" d="M55 115L56 116L55 115M108 115L109 116L108 115z"/>
<path style="fill:#606060; stroke:none;" d="M57 116L58 117L57 116z"/>
<path style="fill:#313131; stroke:none;" d="M95 116L96 117L95 116z"/>
<path style="fill:#a1a1a1; stroke:none;" d="M96 116L97 117L96 116z"/>
<path style="fill:#313131; stroke:none;" d="M97 116L98 117L97 116z"/>
<path style="fill:#a1a1a1; stroke:none;" d="M107 116L108 117L107 116M58 117L59 118L58 117z"/>
<path style="fill:#313131; stroke:none;" d="M59 117L60 118L59 117M93 117L94 118L93 117z"/>
<path style="fill:#a1a1a1; stroke:none;" d="M94 117L95 118L94 117z"/>
<path style="fill:#313131; stroke:none;" d="M98 117L99 118L98 117M105 117L106 118L105 117z"/>
<path style="fill:#a1a1a1; stroke:none;" d="M60 118L61 119L60 118z"/>
<path style="fill:#313131; stroke:none;" d="M61 118L62 119L61 118M91 118L92 119L91 118z"/>
<path style="fill:#a1a1a1; stroke:none;" d="M92 118L93 119L92 118z"/>
<path style="fill:#313131; stroke:none;" d="M104 118L105 119L104 118z"/>
<path style="fill:#606060; stroke:none;" d="M63 119L64 120L63 119z"/>
<path style="fill:#313131; stroke:none;" d="M64 119L65 120L64 119z"/>
<path style="fill:#606060; stroke:none;" d="M89 119L90 120L89 119z"/>
<path style="fill:#a1a1a1; stroke:none;" d="M90 119L91 120L90 119M99 119L100 120L99 119z"/>
<path style="fill:#606060; stroke:none;" d="M103 119L104 120L103 119z"/>
<path style="fill:#a1a1a1; stroke:none;" d="M65 120L66 121L65 120z"/>
<path style="fill:#606060; stroke:none;" d="M66 120L67 121L66 120z"/>
<path style="fill:#313131; stroke:none;" d="M67 120L68 121L67 120z"/>
<path style="fill:#a1a1a1; stroke:none;" d="M87 120L88 121L87 120M100 120L101 121L100 120M102 120L103 121L102 120M69.6667 121.333L70.3333 121.667L69.6667 121.333z"/>
<path style="fill:#606060; stroke:none;" d="M71.6667 121.333L72.3333 121.667L71.6667 121.333z"/>
<path style="fill:#313131; stroke:none;" d="M73 121L73 122L77 122L73 121z"/>
</svg>
