<?xml version="1.0" standalone="yes"?>
<svg xmlns="http://www.w3.org/2000/svg" width="160" height="160">
<path style="fill:#ffffff; stroke:none;" d="M0 0L0 160L160 160L160 0L0 0z"/>
<path style="fill:#5f5f5f; stroke:none;" d="M57 42L58 43L57 42z"/>
<path style="fill:#9f9f9f; stroke:none;" d="M58 42L59 43L58 42M76.6667 42.3333L77.3333 42.6667L76.6667 42.3333z"/>
<path style="fill:#5f5f5f; stroke:none;" d="M78 42L78 43L85 43L78 42z"/>
<path style="fill:#9f9f9f; stroke:none;" d="M85.6667 42.3333L86.3333 42.6667L85.6667 42.3333M99 44L102 43L99 44z"/>
<path style="fill:#2f2f2f; stroke:none;" d="M56 43L57 44L56 43z"/>
<path style="fill:#010101; stroke:none;" d="M55 53L55 54C47.0288 60.4938 42.2741 72.8002 44 83L40 84L40 93C48.3437 94.3192 48.4699 101.499 46 108L52 113L53 113L80 120L80 126L90 126C90.4715 111.521 105.696 120.728 113 114L113 113C107.618 106.019 118.607 94.0056 119 85C123.137 84.8624 127.054 83.3788 125.667 78.2276C124.759 74.8583 120.3 74.8786 118.649 71.8526C113.811 62.9854 109.945 46.869 100 43C95.9044 46.6753 90.9812 43.4557 86 43.0903C77.8896 42.4952 71.8491 45.2804 64.1744 46.3603C61.457 46.7427 60.3999 44.9532 59 43C53.723 44.8015 50.1012 48.4945 55 53z"/>
<path style="fill:#9f9f9f; stroke:none;" d="M71 43L72 44L71 43z"/>
<path style="fill:#5f5f5f; stroke:none;" d="M72 43L73 44L72 43z"/>
<path style="fill:#2f2f2f; stroke:none;" d="M73 43L74 44L73 43M89 43L90 44L89 43z"/>
<path style="fill:#5f5f5f; stroke:none;" d="M90 43L91 44L90 43z"/>
<path style="fill:#9f9f9f; stroke:none;" d="M91 43L92 44L91 43z"/>
<path style="fill:#5f5f5f; stroke:none;" d="M102 43L103 44L102 43z"/>
<path style="fill:#9f9f9f; stroke:none;" d="M54 44L55 45L54 44z"/>
<path style="fill:#2f2f2f; stroke:none;" d="M59 44L60 45L59 44z"/>
<path style="fill:#9f9f9f; stroke:none;" d="M68 44L69 45L68 44z"/>
<path style="fill:#5f5f5f; stroke:none;" d="M69 44L70 45L69 44M93 44L94 45L93 44z"/>
<path style="fill:#9f9f9f; stroke:none;" d="M94 44L95 45L94 44z"/>
<path style="fill:#2f2f2f; stroke:none;" d="M99 44L100 45L99 44M103 44L104 45L103 44z"/>
<path style="fill:#9f9f9f; stroke:none;" d="M53 45L54 46L53 45z"/>
<path style="fill:#5f5f5f; stroke:none;" d="M60 45L61 46L60 45M66 45L67 46L66 45M96 45L97 46L96 45z"/>
<path style="fill:#2f2f2f; stroke:none;" d="M98 45L99 46L98 45z"/>
<path style="fill:#9f9f9f; stroke:none;" d="M105 45L106 46L105 45z"/>
<path style="fill:#5f5f5f; stroke:none;" d="M52 46L53 47L52 46M61 46L62 47L61 46M64 46L65 47L64 46z"/>
<path style="fill:#9f9f9f; stroke:none;" d="M106 46L107 47L106 46z"/>
<path style="fill:#5f5f5f; stroke:none;" d="M51 47L52 48L51 47z"/>
<path style="fill:#2f2f2f; stroke:none;" d="M62 47L63 48L62 47z"/>
<path style="fill:#5f5f5f; stroke:none;" d="M107 47L108 48L107 47M50 48L51 49L50 48z"/>
<path style="fill:#9f9f9f; stroke:none;" d="M108 48L109 49L108 48z"/>
<path style="fill:#2f2f2f; stroke:none;" d="M51 49L52 50L51 49M107 49L108 50L107 49z"/>
<path style="fill:#9f9f9f; stroke:none;" d="M52 51L53 52L52 51M106 51L107 52L106 51M53 52L54 53L53 52M107 52L108 53L107 52z"/>
<path style="fill:#2f2f2f; stroke:none;" d="M54 53L55 54L54 53z"/>
<path style="fill:#9f9f9f; stroke:none;" d="M108 53L109 54L108 53M53 54L54 55L53 54M109 54L110 55L109 54M52 55L53 56L52 55M110 55L111 56L110 55M51 56L52 57L51 56z"/>
<path style="fill:#2f2f2f; stroke:none;" d="M51 57L52 58L51 57M111 57L112 58L111 57z"/>
<path style="fill:#5f5f5f; stroke:none;" d="M50 58L51 59L50 58M112 58L113 59L112 58z"/>
<path style="fill:#9f9f9f; stroke:none;" d="M49 59L50 60L49 59M113 59L114 60L113 59z"/>
<path style="fill:#5f5f5f; stroke:none;" d="M48 61L49 62L48 61M114 61L115 62L114 61M47 63L48 64L47 63M115 63L116 64L115 63M46 65L47 66L46 65M116 65L117 66L116 65z"/>
<path style="fill:#9f9f9f; stroke:none;" d="M45 67L46 68L45 67M117 67L118 68L117 67z"/>
<path style="fill:#2f2f2f; stroke:none;" d="M45 68L46 69L45 68M117 68L118 69L117 68z"/>
<path style="fill:#9f9f9f; stroke:none;" d="M44 70L45 71L44 70M118 70L119 71L118 70z"/>
<path style="fill:#5f5f5f; stroke:none;" d="M44 71L45 72L44 71M118 71L119 72L118 71z"/>
<path style="fill:#2f2f2f; stroke:none;" d="M118 72L119 73L118 72z"/>
<path style="fill:#9f9f9f; stroke:none;" d="M43.3333 74.6667L43.6667 75.3333L43.3333 74.6667M119 74L120 75L119 74z"/>
<path style="fill:#2f2f2f; stroke:none;" d="M124.667 75.3333L125.333 75.6667L124.667 75.3333z"/>
<path style="fill:#5f5f5f; stroke:none;" d="M43 76L44 77L43 76z"/>
<path style="fill:#2f2f2f; stroke:none;" d="M43 77L43 80L44 80L43 77M43 82L44 83L43 82z"/>
<path style="fill:#9f9f9f; stroke:none;" d="M39 83L39 88L40 88L39 83z"/>
<path style="fill:#5f5f5f; stroke:none;" d="M40 83L41 84L40 83z"/>
<path style="fill:#9f9f9f; stroke:none;" d="M41.6667 83.3333L42.3333 83.6667L41.6667 83.3333z"/>
<path style="fill:#2f2f2f; stroke:none;" d="M125.333 83.6667L125.667 84.3333L125.333 83.6667z"/>
<path style="fill:#5f5f5f; stroke:none;" d="M119.333 85.6667L119.667 86.3333L119.333 85.6667z"/>
<path style="fill:#9f9f9f; stroke:none;" d="M119.333 87.6667L119.667 88.3333L119.333 87.6667z"/>
<path style="fill:#5f5f5f; stroke:none;" d="M39 88L39 93L40 93L39 88z"/>
<path style="fill:#2f2f2f; stroke:none;" d="M118 90L119 91L118 90z"/>
<path style="fill:#5f5f5f; stroke:none;" d="M118 91L119 92L118 91z"/>
<path style="fill:#9f9f9f; stroke:none;" d="M118 92L119 93L118 92M39.6667 93.3333L40.3333 93.6667L39.6667 93.3333z"/>
<path style="fill:#5f5f5f; stroke:none;" d="M41 93L41 94L45 94L41 93M45 94L46 95L45 94M117 94L118 95L117 94z"/>
<path style="fill:#9f9f9f; stroke:none;" d="M45 95L46 96L45 95M117 95L118 96L117 95z"/>
<path style="fill:#2f2f2f; stroke:none;" d="M46 96L47 97L46 96M116 96L117 97L116 96z"/>
<path style="fill:#9f9f9f; stroke:none;" d="M46 97L47 98L46 97M116 97L117 98L116 97M47 99L48 100L47 99M115 99L116 100L115 99z"/>
<path style="fill:#2f2f2f; stroke:none;" d="M48 100L49 101L48 100M114 100L115 101L114 100z"/>
<path style="fill:#9f9f9f; stroke:none;" d="M48 101L49 102L48 101M114 101L115 102L114 101z"/>
<path style="fill:#2f2f2f; stroke:none;" d="M113 102L114 103L113 102z"/>
<path style="fill:#5f5f5f; stroke:none;" d="M48 103L49 104L48 103z"/>
<path style="fill:#9f9f9f; stroke:none;" d="M47 104L48 105L47 104M112 104L113 105L112 104M46 105L47 106L46 105z"/>
<path style="fill:#5f5f5f; stroke:none;" d="M111 105L112 106L111 105z"/>
<path style="fill:#2f2f2f; stroke:none;" d="M110 106L111 107L110 106z"/>
<path style="fill:#9f9f9f; stroke:none;" d="M45 107L46 108L45 107z"/>
<path style="fill:#2f2f2f; stroke:none;" d="M109 107L110 108L109 107z"/>
<path style="fill:#9f9f9f; stroke:none;" d="M46 108L47 109L46 108z"/>
<path style="fill:#2f2f2f; stroke:none;" d="M48 109L49 110L48 109M109 109L110 110L109 109z"/>
<path style="fill:#5f5f5f; stroke:none;" d="M49 110L50 111L49 110M55 110L56 111L55 110z"/>
<path style="fill:#2f2f2f; stroke:none;" d="M56 110L57 111L56 110z"/>
<path style="fill:#5f5f5f; stroke:none;" d="M110 110L111 111L110 110z"/>
<path style="fill:#9f9f9f; stroke:none;" d="M50 111L51 112L50 111z"/>
<path style="fill:#2f2f2f; stroke:none;" d="M54 111L55 112L54 111z"/>
<path style="fill:#5f5f5f; stroke:none;" d="M57 111L58 112L57 111z"/>
<path style="fill:#9f9f9f; stroke:none;" d="M111 111L112 112L111 111M51 112L52 113L51 112z"/>
<path style="fill:#2f2f2f; stroke:none;" d="M53 112L54 113L53 112z"/>
<path style="fill:#9f9f9f; stroke:none;" d="M58 112L59 113L58 112M112 112L113 113L112 112M59 113L60 114L59 113z"/>
<path style="fill:#2f2f2f; stroke:none;" d="M60 113L61 114L60 113z"/>
<path style="fill:#9f9f9f; stroke:none;" d="M113 113L114 114L113 113z"/>
<path style="fill:#5f5f5f; stroke:none;" d="M61 114L62 115L61 114z"/>
<path style="fill:#2f2f2f; stroke:none;" d="M112 114L113 115L112 114M63 115L64 116L63 115z"/>
<path style="fill:#5f5f5f; stroke:none;" d="M99 115L100 116L99 115z"/>
<path style="fill:#9f9f9f; stroke:none;" d="M101 115L102 116L101 115z"/>
<path style="fill:#5f5f5f; stroke:none;" d="M111 115L112 116L111 115z"/>
<path style="fill:#9f9f9f; stroke:none;" d="M64 116L65 117L64 116z"/>
<path style="fill:#5f5f5f; stroke:none;" d="M65 116L66 117L65 116M97 116L98 117L97 116z"/>
<path style="fill:#9f9f9f; stroke:none;" d="M98 116L99 117L98 116M102 116L103 117L102 116z"/>
<path style="fill:#5f5f5f; stroke:none;" d="M110 116L111 117L110 116M67 117L68 118L67 117M95 117L96 118L95 117M103 117L104 118L103 117z"/>
<path style="fill:#9f9f9f; stroke:none;" d="M109 117L110 118L109 117M69 118L70 119L69 118z"/>
<path style="fill:#5f5f5f; stroke:none;" d="M70 118L71 119L70 118z"/>
<path style="fill:#2f2f2f; stroke:none;" d="M71 118L72 119L71 118M91 118L92 119L91 118z"/>
<path style="fill:#5f5f5f; stroke:none;" d="M92 118L93 119L92 118z"/>
<path style="fill:#9f9f9f; stroke:none;" d="M93 118L94 119L93 118z"/>
<path style="fill:#5f5f5f; stroke:none;" d="M104 118L105 119L104 118z"/>
<path style="fill:#9f9f9f; stroke:none;" d="M108 118L109 119L108 118M73 119L74 120L73 119z"/>
<path style="fill:#5f5f5f; stroke:none;" d="M74 119L75 120L74 119z"/>
<path style="fill:#2f2f2f; stroke:none;" d="M75.6667 119.333L76.3333 119.667L75.6667 119.333M105.667 119.333L106.333 119.667L105.667 119.333z"/>
</svg>
