<?xml version="1.0" standalone="yes"?>
<svg xmlns="http://www.w3.org/2000/svg" width="160" height="160">
<path style="fill:#ffffff; stroke:none;" d="M0 0L0 160L160 160L160 0L0 0z"/>
<path style="fill:#a2a2a2; stroke:none;" d="M76 43L76 44L80 44L76 43z"/>
<path style="fill:#626262; stroke:none;" d="M80.6667 43.3333L81.3333 43.6667L80.6667 43.3333z"/>
<path style="fill:#a2a2a2; stroke:none;" d="M82 43L82 44L86 44L82 43z"/>
<path style="fill:#626262; stroke:none;" d="M59 44L60 45L59 44z"/>
<path style="fill:#a2a2a2; stroke:none;" d="M60 44L61 45L60 44M71 44L72 45L71 44z"/>
<path style="fill:#626262; stroke:none;" d="M72 44L73 45L72 44z"/>
<path style="fill:#313231; stroke:none;" d="M73 44L74 45L73 44z"/>
<path style="fill:#010101; stroke:none;" d="M61 45C53.9473 47.7438 54.9937 52.4926 51.2269 58C33.6204 83.7418 47.6861 120.312 81 121L81 127L91 127C91.4457 113.305 105.725 119.701 113 113C109.279 105.499 115.997 99.5028 117.764 92C120.629 79.835 118.1 66.5945 109.79 57.0039C102.135 48.1685 91.5351 43.8844 80 44.0039C74.2084 44.0638 65.4813 48.9386 61 45z"/>
<path style="fill:#313231; stroke:none;" d="M88 44L89 45L88 44z"/>
<path style="fill:#626262; stroke:none;" d="M89 44L90 45L89 44z"/>
<path style="fill:#a2a2a2; stroke:none;" d="M90 44L91 45L90 44z"/>
<path style="fill:#313231; stroke:none;" d="M58 45L59 46L58 45z"/>
<path style="fill:#a2a2a2; stroke:none;" d="M68 45L69 46L68 45z"/>
<path style="fill:#313231; stroke:none;" d="M69 45L70 46L69 45M92 45L93 46L92 45z"/>
<path style="fill:#a2a2a2; stroke:none;" d="M93 45L94 46L93 45M56 46L57 47L56 46z"/>
<path style="fill:#313231; stroke:none;" d="M57 46L58 47L57 46M61 46L62 47L61 46z"/>
<path style="fill:#a2a2a2; stroke:none;" d="M65 46L66 47L65 46z"/>
<path style="fill:#626262; stroke:none;" d="M66 46L67 47L66 46M95 46L96 47L95 46z"/>
<path style="fill:#a2a2a2; stroke:none;" d="M55 47L56 48L55 47z"/>
<path style="fill:#313231; stroke:none;" d="M62 47L63 48L62 47z"/>
<path style="fill:#a2a2a2; stroke:none;" d="M63 47L64 48L63 47z"/>
<path style="fill:#313231; stroke:none;" d="M64 47L65 48L64 47z"/>
<path style="fill:#626262; stroke:none;" d="M97 47L98 48L97 47z"/>
<path style="fill:#a2a2a2; stroke:none;" d="M98 47L99 48L98 47M54 48L55 49L54 48z"/>
<path style="fill:#626262; stroke:none;" d="M99 48L100 49L99 48M53 49L54 50L53 49z"/>
<path style="fill:#a2a2a2; stroke:none;" d="M101 49L102 50L101 49z"/>
<path style="fill:#626262; stroke:none;" d="M52 50L53 51L52 50z"/>
<path style="fill:#313231; stroke:none;" d="M102 50L103 51L102 50M53 51L54 52L53 51z"/>
<path style="fill:#a2a2a2; stroke:none;" d="M104 51L105 52L104 51z"/>
<path style="fill:#626262; stroke:none;" d="M105 52L106 53L105 52z"/>
<path style="fill:#a2a2a2; stroke:none;" d="M54 53L55 54L54 53z"/>
<path style="fill:#626262; stroke:none;" d="M106 53L107 54L106 53z"/>
<path style="fill:#313231; stroke:none;" d="M54 54L55 55L54 54z"/>
<path style="fill:#626262; stroke:none;" d="M107 54L108 55L107 54z"/>
<path style="fill:#313231; stroke:none;" d="M53 55L54 56L53 55z"/>
<path style="fill:#626262; stroke:none;" d="M108 55L109 56L108 55M52 56L53 57L52 56M109 56L110 57L109 56M51 57L52 58L51 57z"/>
<path style="fill:#a2a2a2; stroke:none;" d="M110 57L111 58L110 57M50 58L51 59L50 58M111 58L112 59L111 58z"/>
<path style="fill:#313231; stroke:none;" d="M49 60L50 61L49 60z"/>
<path style="fill:#626262; stroke:none;" d="M112 60L113 61L112 60z"/>
<path style="fill:#a2a2a2; stroke:none;" d="M48 61L49 62L48 61M113 61L114 62L113 61z"/>
<path style="fill:#313231; stroke:none;" d="M113 62L114 63L113 62z"/>
<path style="fill:#626262; stroke:none;" d="M47 63L48 64L47 63M114 63L115 64L114 63M46 65L47 66L46 65M115 65L116 66L115 65M45 67L46 68L45 67z"/>
<path style="fill:#a2a2a2; stroke:none;" d="M116 67L117 68L116 67z"/>
<path style="fill:#313231; stroke:none;" d="M116 68L117 69L116 68z"/>
<path style="fill:#a2a2a2; stroke:none;" d="M44 69L45 70L44 69z"/>
<path style="fill:#626262; stroke:none;" d="M44 70L45 71L44 70M117 70L118 71L117 70z"/>
<path style="fill:#313231; stroke:none;" d="M117 71L118 72L117 71z"/>
<path style="fill:#a2a2a2; stroke:none;" d="M43 73L44 74L43 73M118 73L119 74L118 73z"/>
<path style="fill:#626262; stroke:none;" d="M43 74L44 75L43 74M118 74L119 75L118 74z"/>
<path style="fill:#313231; stroke:none;" d="M43 75L44 76L43 75M118 75L119 76L118 75z"/>
<path style="fill:#a2a2a2; stroke:none;" d="M42 78L42 87L43 87L42 78M119 78L119 86L120 86L119 78z"/>
<path style="fill:#313231; stroke:none;" d="M118.333 88.6667L118.667 89.3333L118.333 88.6667M43 89L44 90L43 89z"/>
<path style="fill:#626262; stroke:none;" d="M43 90L44 91L43 90M118 90L119 91L118 90z"/>
<path style="fill:#a2a2a2; stroke:none;" d="M43 91L44 92L43 91M118 91L119 92L118 91z"/>
<path style="fill:#313231; stroke:none;" d="M44 93L45 94L44 93M117 93L118 94L117 93z"/>
<path style="fill:#626262; stroke:none;" d="M44 94L45 95L44 94z"/>
<path style="fill:#a2a2a2; stroke:none;" d="M117 94L118 95L117 94M44 95L45 96L44 95z"/>
<path style="fill:#313231; stroke:none;" d="M45 96L46 97L45 96M116 96L117 97L116 96z"/>
<path style="fill:#626262; stroke:none;" d="M45 97L46 98L45 97z"/>
<path style="fill:#a2a2a2; stroke:none;" d="M116 97L117 98L116 97z"/>
<path style="fill:#626262; stroke:none;" d="M46 99L47 100L46 99M115 99L116 100L115 99M47 101L48 102L47 101z"/>
<path style="fill:#a2a2a2; stroke:none;" d="M114 101L115 102L114 101z"/>
<path style="fill:#313231; stroke:none;" d="M113 102L114 103L113 102z"/>
<path style="fill:#a2a2a2; stroke:none;" d="M48 103L49 104L48 103M113 103L114 104L113 103z"/>
<path style="fill:#626262; stroke:none;" d="M49 104L50 105L49 104M112 104L113 105L112 104z"/>
<path style="fill:#313231; stroke:none;" d="M111 105L112 106L111 105z"/>
<path style="fill:#a2a2a2; stroke:none;" d="M50 106L51 107L50 106M111 106L112 107L111 106M51 107L52 108L51 107M110 107L111 108L110 107z"/>
<path style="fill:#626262; stroke:none;" d="M52 108L53 109L52 108M53 109L54 110L53 109z"/>
<path style="fill:#313231; stroke:none;" d="M110 109L111 110L110 109z"/>
<path style="fill:#626262; stroke:none;" d="M54 110L55 111L54 110M111 110L112 111L111 110M55 111L56 112L55 111z"/>
<path style="fill:#a2a2a2; stroke:none;" d="M112 111L113 112L112 111z"/>
<path style="fill:#626262; stroke:none;" d="M56 112L57 113L56 112z"/>
<path style="fill:#a2a2a2; stroke:none;" d="M113 112L114 113L113 112M57 113L58 114L57 113z"/>
<path style="fill:#313231; stroke:none;" d="M112 113L113 114L112 113M59 114L60 115L59 114M111 114L112 115L111 114z"/>
<path style="fill:#a2a2a2; stroke:none;" d="M60 115L61 116L60 115M101.667 115.333L102.333 115.667L101.667 115.333z"/>
<path style="fill:#626262; stroke:none;" d="M110 115L111 116L110 115M62 116L63 117L62 116M99 116L100 117L99 116z"/>
<path style="fill:#a2a2a2; stroke:none;" d="M103 116L104 117L103 116M109 116L110 117L109 116z"/>
<path style="fill:#626262; stroke:none;" d="M64 117L65 118L64 117M97 117L98 118L97 117M104 117L105 118L104 117z"/>
<path style="fill:#a2a2a2; stroke:none;" d="M108 117L109 118L108 117z"/>
<path style="fill:#626262; stroke:none;" d="M66 118L67 119L66 118z"/>
<path style="fill:#313231; stroke:none;" d="M94 118L95 119L94 118z"/>
<path style="fill:#626262; stroke:none;" d="M95 118L96 119L95 118z"/>
<path style="fill:#313231; stroke:none;" d="M105.667 118.333L106.333 118.667L105.667 118.333z"/>
<path style="fill:#a2a2a2; stroke:none;" d="M107 118L108 119L107 118M68 119L69 120L68 119z"/>
<path style="fill:#626262; stroke:none;" d="M69 119L70 120L69 119M92 119L93 120L92 119z"/>
<path style="fill:#a2a2a2; stroke:none;" d="M93 119L94 120L93 119M71.6667 120.333L72.3333 120.667L71.6667 120.333z"/>
<path style="fill:#626262; stroke:none;" d="M73 120L74 121L73 120z"/>
<path style="fill:#313231; stroke:none;" d="M74 120L75 121L74 120z"/>
<path style="fill:#a2a2a2; stroke:none;" d="M77 121L77 122L81 122L77 121z"/>
</svg>
