<?xml version="1.0" standalone="yes"?>
<svg xmlns="http://www.w3.org/2000/svg" width="160" height="160">
<path style="fill:#ffffff; stroke:none;" d="M0 0L0 160L160 160L160 0L0 0z"/>
<path style="fill:#a2a2a2; stroke:none;" d="M56 48L57 49L56 48z"/>
<path style="fill:#605f60; stroke:none;" d="M57 48L58 49L57 48z"/>
<path style="fill:#a2a2a2; stroke:none;" d="M72.6667 48.3333L73.3333 48.6667L72.6667 48.3333z"/>
<path style="fill:#605f60; stroke:none;" d="M74 48L74 49L77 49L74 48z"/>
<path style="fill:#2e2e2e; stroke:none;" d="M77 48L77 49L82 49L77 48z"/>
<path style="fill:#605f60; stroke:none;" d="M82.6667 48.3333L83.3333 48.6667L82.6667 48.3333z"/>
<path style="fill:#a2a2a2; stroke:none;" d="M84.6667 48.3333L85.3333 48.6667L84.6667 48.3333M97 50L100 49L97 50z"/>
<path style="fill:#605f60; stroke:none;" d="M55 49L56 50L55 49z"/>
<path style="fill:#010101; stroke:none;" d="M50 54L50 55C53.1968 60.6513 47.9303 63.9422 45.3773 69C42.2637 75.1685 41.0567 82.1551 41 89L36 89L36 98L43 98C44.3849 105.774 43.8511 114.815 51 119L52 116C61.1375 120.525 68.5055 125.165 79 126L79 132L89 132L89 124C96.5979 122.646 105.381 124.176 111 119L111 118C108.541 114.566 108.55 112.927 110 109C115.295 112.105 117.974 109.207 120 104C114.426 99.656 116.729 95.2185 117 89L123 89C122.995 82.8566 122.913 79.383 116 79L106 55L106 54L98 49L97 52C83.2842 48.8557 73.4686 48.451 60 53C57.1683 48.0577 53.5713 51.2199 50 54z"/>
<path style="fill:#a2a2a2; stroke:none;" d="M58 49L59 50L58 49M68 49L69 50L68 49z"/>
<path style="fill:#605f60; stroke:none;" d="M69 49L70 50L69 49z"/>
<path style="fill:#2e2e2e; stroke:none;" d="M70 49L71 50L70 49M87 49L88 50L87 49z"/>
<path style="fill:#605f60; stroke:none;" d="M88 49L89 50L88 49z"/>
<path style="fill:#a2a2a2; stroke:none;" d="M89 49L90 50L89 49z"/>
<path style="fill:#605f60; stroke:none;" d="M100 49L101 50L100 49z"/>
<path style="fill:#2e2e2e; stroke:none;" d="M54 50L55 51L54 50z"/>
<path style="fill:#a2a2a2; stroke:none;" d="M59 50L60 51L59 50M65 50L66 51L65 50z"/>
<path style="fill:#605f60; stroke:none;" d="M66 50L67 51L66 50z"/>
<path style="fill:#2e2e2e; stroke:none;" d="M91 50L92 51L91 50z"/>
<path style="fill:#a2a2a2; stroke:none;" d="M92 50L93 51L92 50z"/>
<path style="fill:#2e2e2e; stroke:none;" d="M101 50L102 51L101 50M53 51L54 52L53 51z"/>
<path style="fill:#a2a2a2; stroke:none;" d="M63 51L64 52L63 51z"/>
<path style="fill:#2e2e2e; stroke:none;" d="M64 51L65 52L64 51z"/>
<path style="fill:#605f60; stroke:none;" d="M94 51L95 52L94 51z"/>
<path style="fill:#2e2e2e; stroke:none;" d="M96 51L97 52L96 51M102 51L103 52L102 51z"/>
<path style="fill:#a2a2a2; stroke:none;" d="M103 51L104 52L103 51M51 52L52 53L51 52z"/>
<path style="fill:#2e2e2e; stroke:none;" d="M60 52L61 53L60 52z"/>
<path style="fill:#605f60; stroke:none;" d="M61 52L62 53L61 52z"/>
<path style="fill:#a2a2a2; stroke:none;" d="M104 52L105 53L104 52M50 53L51 54L50 53z"/>
<path style="fill:#605f60; stroke:none;" d="M105 53L106 54L105 53z"/>
<path style="fill:#a2a2a2; stroke:none;" d="M49 54L50 55L49 54M106 54L107 55L106 54z"/>
<path style="fill:#605f60; stroke:none;" d="M50 55L51 56L50 55z"/>
<path style="fill:#2e2e2e; stroke:none;" d="M105 55L106 56L105 55M51 56L52 57L51 56M104 56L105 57L104 56M52 57L53 58L52 57z"/>
<path style="fill:#a2a2a2; stroke:none;" d="M104 57L105 58L104 57M52 58L53 59L52 58M105 58L106 59L105 58z"/>
<path style="fill:#2e2e2e; stroke:none;" d="M52 59L53 60L52 59z"/>
<path style="fill:#a2a2a2; stroke:none;" d="M106 59L107 60L106 59z"/>
<path style="fill:#2e2e2e; stroke:none;" d="M51 60L52 61L51 60z"/>
<path style="fill:#a2a2a2; stroke:none;" d="M107 60L108 61L107 60z"/>
<path style="fill:#2e2e2e; stroke:none;" d="M50 61L51 62L50 61M107 61L108 62L107 61z"/>
<path style="fill:#605f60; stroke:none;" d="M49 62L50 63L49 62z"/>
<path style="fill:#2e2e2e; stroke:none;" d="M108 62L109 63L108 62z"/>
<path style="fill:#a2a2a2; stroke:none;" d="M48 63L49 64L48 63z"/>
<path style="fill:#605f60; stroke:none;" d="M109 63L110 64L109 63z"/>
<path style="fill:#a2a2a2; stroke:none;" d="M110 64L111 65L110 64z"/>
<path style="fill:#2e2e2e; stroke:none;" d="M47 65L48 66L47 65z"/>
<path style="fill:#a2a2a2; stroke:none;" d="M46 66L47 67L46 66z"/>
<path style="fill:#605f60; stroke:none;" d="M111 66L112 67L111 66z"/>
<path style="fill:#a2a2a2; stroke:none;" d="M112 67L113 68L112 67z"/>
<path style="fill:#605f60; stroke:none;" d="M45 68L46 69L45 68z"/>
<path style="fill:#2e2e2e; stroke:none;" d="M112 68L113 69L112 68z"/>
<path style="fill:#a2a2a2; stroke:none;" d="M113 69L114 70L113 69z"/>
<path style="fill:#605f60; stroke:none;" d="M44 70L45 71L44 70z"/>
<path style="fill:#2e2e2e; stroke:none;" d="M113 70L114 71L113 70z"/>
<path style="fill:#a2a2a2; stroke:none;" d="M114 71L115 72L114 71z"/>
<path style="fill:#605f60; stroke:none;" d="M43 72L44 73L43 72z"/>
<path style="fill:#2e2e2e; stroke:none;" d="M114 72L115 73L114 72M43 73L44 74L43 73z"/>
<path style="fill:#a2a2a2; stroke:none;" d="M42 74L43 75L42 74M115 74L116 75L115 74z"/>
<path style="fill:#605f60; stroke:none;" d="M42 75L43 76L42 75z"/>
<path style="fill:#2e2e2e; stroke:none;" d="M115 75L116 76L115 75M42 76L43 77L42 76z"/>
<path style="fill:#a2a2a2; stroke:none;" d="M116 77L117 78L116 77M41 78L42 79L41 78z"/>
<path style="fill:#605f60; stroke:none;" d="M116 78L117 79L116 78M41 79L42 80L41 79z"/>
<path style="fill:#2e2e2e; stroke:none;" d="M121.667 79.3333L122.333 79.6667L121.667 79.3333z"/>
<path style="fill:#a2a2a2; stroke:none;" d="M123 79L123 88L124 88L123 79z"/>
<path style="fill:#2e2e2e; stroke:none;" d="M41.3333 80.6667L41.6667 81.3333L41.3333 80.6667z"/>
<path style="fill:#a2a2a2; stroke:none;" d="M40 84L40 88L41 88L40 84z"/>
<path style="fill:#605f60; stroke:none;" d="M36 88L36 89L41 89L36 88z"/>
<path style="fill:#a2a2a2; stroke:none;" d="M35 89L35 96L36 96L35 89M117 89L117 92L118 92L117 89z"/>
<path style="fill:#2e2e2e; stroke:none;" d="M116 94L117 95L116 94z"/>
<path style="fill:#605f60; stroke:none;" d="M116 95L117 96L116 95M35.3333 96.6667L35.6667 97.3333L35.3333 96.6667z"/>
<path style="fill:#a2a2a2; stroke:none;" d="M116 96L117 97L116 96M36 98L36 99L41 99L36 98z"/>
<path style="fill:#605f60; stroke:none;" d="M41 98L42 99L41 98z"/>
<path style="fill:#2e2e2e; stroke:none;" d="M42 98L43 99L42 98M115 98L116 99L115 98z"/>
<path style="fill:#a2a2a2; stroke:none;" d="M42 99L43 100L42 99z"/>
<path style="fill:#605f60; stroke:none;" d="M115 99L116 100L115 99z"/>
<path style="fill:#a2a2a2; stroke:none;" d="M115 100L116 101L115 100z"/>
<path style="fill:#605f60; stroke:none;" d="M43 101L44 102L43 101z"/>
<path style="fill:#a2a2a2; stroke:none;" d="M116 101L117 102L116 101M43 102L44 103L43 102z"/>
<path style="fill:#605f60; stroke:none;" d="M117 102L118 103L117 102z"/>
<path style="fill:#2e2e2e; stroke:none;" d="M44 103L45 104L44 103M118 103L119 104L118 103z"/>
<path style="fill:#a2a2a2; stroke:none;" d="M44 104L45 105L44 104M120.333 104.667L120.667 105.333L120.333 104.667z"/>
<path style="fill:#2e2e2e; stroke:none;" d="M45 105L46 106L45 105z"/>
<path style="fill:#a2a2a2; stroke:none;" d="M45 106L46 107L45 106z"/>
<path style="fill:#605f60; stroke:none;" d="M119 106L120 107L119 106M46.3333 107.667L46.6667 108.333L46.3333 107.667z"/>
<path style="fill:#2e2e2e; stroke:none;" d="M118 107L119 108L118 107z"/>
<path style="fill:#a2a2a2; stroke:none;" d="M45 109L46 110L45 109z"/>
<path style="fill:#2e2e2e; stroke:none;" d="M110 109L111 110L110 109z"/>
<path style="fill:#a2a2a2; stroke:none;" d="M117 109L118 110L117 109M44 110L45 111L44 110z"/>
<path style="fill:#2e2e2e; stroke:none;" d="M109 110L110 111L109 110z"/>
<path style="fill:#a2a2a2; stroke:none;" d="M111 110L112 111L111 110z"/>
<path style="fill:#605f60; stroke:none;" d="M116 110L117 111L116 110z"/>
<path style="fill:#2e2e2e; stroke:none;" d="M44 111L45 112L44 111M113 111L114 112L113 111M115 111L116 112L115 111M43.3333 112.667L43.6667 113.333L43.3333 112.667z"/>
<path style="fill:#a2a2a2; stroke:none;" d="M108 112L109 113L108 112z"/>
<path style="fill:#605f60; stroke:none;" d="M114 112L115 113L114 112z"/>
<path style="fill:#a2a2a2; stroke:none;" d="M107 113L108 114L107 113z"/>
<path style="fill:#605f60; stroke:none;" d="M44 114L45 115L44 114z"/>
<path style="fill:#2e2e2e; stroke:none;" d="M107 114L108 115L107 114z"/>
<path style="fill:#a2a2a2; stroke:none;" d="M45 115L46 116L45 115z"/>
<path style="fill:#605f60; stroke:none;" d="M108 115L109 116L108 115z"/>
<path style="fill:#a2a2a2; stroke:none;" d="M46 116L47 117L46 116z"/>
<path style="fill:#2e2e2e; stroke:none;" d="M52 116L53 117L52 116z"/>
<path style="fill:#a2a2a2; stroke:none;" d="M53 116L54 117L53 116M109 116L110 117L109 116z"/>
<path style="fill:#2e2e2e; stroke:none;" d="M48 117L49 118L48 117M51 117L52 118L51 117M55 117L56 118L55 117z"/>
<path style="fill:#a2a2a2; stroke:none;" d="M110 117L111 118L110 117z"/>
<path style="fill:#605f60; stroke:none;" d="M49 118L50 119L49 118z"/>
<path style="fill:#a2a2a2; stroke:none;" d="M51 118L52 119L51 118z"/>
<path style="fill:#605f60; stroke:none;" d="M56 118L57 119L56 118z"/>
<path style="fill:#a2a2a2; stroke:none;" d="M50 119L51 120L50 119M57 119L58 120L57 119z"/>
<path style="fill:#2e2e2e; stroke:none;" d="M110 119L111 120L110 119z"/>
<path style="fill:#605f60; stroke:none;" d="M59 120L60 121L59 120z"/>
<path style="fill:#2e2e2e; stroke:none;" d="M98 120L99 121L98 120z"/>
<path style="fill:#a2a2a2; stroke:none;" d="M99 120L100 121L99 120z"/>
<path style="fill:#605f60; stroke:none;" d="M109 120L110 121L109 120z"/>
<path style="fill:#a2a2a2; stroke:none;" d="M60 121L61 122L60 121z"/>
<path style="fill:#2e2e2e; stroke:none;" d="M61 121L62 122L61 121M96 121L97 122L96 121z"/>
<path style="fill:#a2a2a2; stroke:none;" d="M97 121L98 122L97 121M100 121L101 122L100 121z"/>
<path style="fill:#605f60; stroke:none;" d="M108 121L109 122L108 121z"/>
<path style="fill:#a2a2a2; stroke:none;" d="M62 122L63 123L62 122z"/>
<path style="fill:#605f60; stroke:none;" d="M63 122L64 123L63 122z"/>
<path style="fill:#2e2e2e; stroke:none;" d="M94 122L95 123L94 122z"/>
<path style="fill:#a2a2a2; stroke:none;" d="M95 122L96 123L95 122z"/>
<path style="fill:#605f60; stroke:none;" d="M101 122L102 123L101 122z"/>
<path style="fill:#a2a2a2; stroke:none;" d="M107 122L108 123L107 122z"/>
<path style="fill:#605f60; stroke:none;" d="M65 123L66 124L65 123z"/>
<path style="fill:#2e2e2e; stroke:none;" d="M66 123L67 124L66 123z"/>
<path style="fill:#605f60; stroke:none;" d="M92 123L93 124L92 123z"/>
<path style="fill:#a2a2a2; stroke:none;" d="M93 123L94 124L93 123z"/>
<path style="fill:#605f60; stroke:none;" d="M102 123L103 124L102 123z"/>
<path style="fill:#a2a2a2; stroke:none;" d="M106 123L107 124L106 123M67 124L68 125L67 124z"/>
<path style="fill:#605f60; stroke:none;" d="M68 124L69 125L68 124z"/>
<path style="fill:#2e2e2e; stroke:none;" d="M69 124L70 125L69 124z"/>
<path style="fill:#605f60; stroke:none;" d="M89 124L90 125L89 124z"/>
<path style="fill:#a2a2a2; stroke:none;" d="M90 124L91 125L90 124z"/>
<path style="fill:#2e2e2e; stroke:none;" d="M103.667 124.333L104.333 124.667L103.667 124.333z"/>
<path style="fill:#a2a2a2; stroke:none;" d="M71 125L72 126L71 125z"/>
<path style="fill:#605f60; stroke:none;" d="M72.6667 125.333L73.3333 125.667L72.6667 125.333z"/>
<path style="fill:#2e2e2e; stroke:none;" d="M74 125L75 126L74 125z"/>
</svg>
