<?xml version="1.0" standalone="no"?>
<!DOCTYPE svg PUBLIC "-//W3C//DTD SVG 20010904//EN"
 "http://www.w3.org/TR/2001/REC-SVG-20010904/DTD/svg10.dtd">
<svg version="1.0" xmlns="http://www.w3.org/2000/svg"
 width="160.000000pt" height="160.000000pt" viewBox="0 0 160.000000 160.000000"
 preserveAspectRatio="xMidYMid meet">

<g transform="translate(0.000000,160.000000) scale(0.100000,-0.100000)"
fill="#000000" stroke="none">
<path d="M492 1088 c-10 -10 6 -31 75 -100 l87 -88 -37 -38 c-34 -35 -36 -40
-22 -52 14 -11 21 -8 53 23 l38 37 34 -35 34 -35 -37 -38 c-34 -35 -36 -40
-22 -52 14 -11 21 -8 53 23 l38 37 34 -35 34 -35 -37 -38 c-34 -35 -36 -40
-22 -52 14 -11 21 -8 53 23 l38 37 34 -35 34 -35 -37 -38 c-34 -35 -36 -40
-22 -52 14 -12 21 -8 53 23 l37 37 82 -82 c71 -71 84 -80 98 -68 14 12 13 16
-15 45 l-30 31 40 39 c31 30 37 41 28 52 -9 11 -19 7 -52 -26 l-42 -41 -64 65
-64 65 38 39 c34 35 37 42 26 56 -12 14 -18 12 -54 -24 l-42 -41 -89 90 -89
90 37 38 c34 35 36 40 22 52 -14 11 -21 8 -53 -23 l-38 -37 -49 50 -49 50 37
38 c32 32 36 41 24 51 -12 9 -22 4 -51 -26 l-36 -37 -43 42 c-48 47 -48 47
-65 30z"/>
</g>
</svg>
