<?xml version="1.0" standalone="no"?>
<!DOCTYPE svg PUBLIC "-//W3C//DTD SVG 20010904//EN"
 "http://www.w3.org/TR/2001/REC-SVG-20010904/DTD/svg10.dtd">
<svg version="1.0" xmlns="http://www.w3.org/2000/svg"
 width="160.000000pt" height="160.000000pt" viewBox="0 0 160.000000 160.000000"
 preserveAspectRatio="xMidYMid meet">

<g transform="translate(0.000000,160.000000) scale(0.100000,-0.100000)"
fill="#000000" stroke="none">
<path d="M492 1117 c-9 -10 7 -31 73 -97 l85 -84 -32 -33 c-27 -27 -29 -35
-18 -48 12 -14 17 -12 47 17 l33 32 35 -34 35 -34 -35 -36 c-32 -33 -34 -38
-20 -50 14 -11 21 -8 51 21 l34 33 185 -184 c147 -147 187 -182 197 -172 10
10 -44 69 -265 290 l-277 278 40 39 c44 43 48 53 24 62 -10 4 -30 -8 -55 -33
l-39 -38 -43 42 c-36 35 -46 40 -55 29z"/>
</g>
</svg>
