<?xml version="1.0" encoding="UTF-8" standalone="no"?>
<!DOCTYPE svg PUBLIC "-//W3C//DTD SVG 1.1//EN" "http://www.w3.org/Graphics/SVG/1.1/DTD/svg11.dtd">
<svg xmlns="http://www.w3.org/2000/svg" version="1.1" viewBox="0 0 98 98" width="98.0pt" height="98.0pt" xmlns:xlink="http://www.w3.org/1999/xlink">
<defs>
<path d="M 0.00 0.00 L 98.00 0.00 L 98.00 98.00 L 0.00 98.00 L 0.00 0.00 Z M 27.57 20.60 C 28.45 21.32 29.30 22.06 30.14 22.83 C 32.14 25.07 34.34 27.12 36.40 29.30 C 36.35 34.94 36.41 40.58 36.36 46.22 C 39.15 49.07 41.90 52.16 45.15 54.49 C 37.04 54.68 28.93 54.53 20.82 54.56 C 20.80 62.96 20.77 71.36 20.84 79.75 C 28.35 72.35 35.98 64.63 43.44 57.15 C 47.49 61.18 51.57 65.19 55.53 69.30 C 55.45 65.35 55.48 61.39 55.49 57.44 C 59.83 57.26 64.16 57.61 68.47 57.15 C 64.36 52.98 60.33 48.68 55.97 44.76 C 63.49 36.94 71.43 29.43 78.91 21.59 C 70.43 21.47 61.94 21.56 53.46 21.53 C 53.48 28.89 53.34 36.25 53.56 43.60 C 53.56 44.47 53.40 45.31 53.23 46.15 C 51.69 42.88 48.32 40.59 45.90 37.95 C 45.96 32.17 45.80 26.38 46.02 20.61 C 39.87 20.57 33.72 20.59 27.57 20.60 Z" id="p0-birdhigh" />
<path d="M 27.57 20.60 C 33.72 20.59 39.87 20.57 46.02 20.61 C 45.80 26.38 45.96 32.17 45.90 37.95 C 48.32 40.59 51.69 42.88 53.23 46.15 C 53.40 45.31 53.56 44.47 53.56 43.60 C 53.34 36.25 53.48 28.89 53.46 21.53 C 61.94 21.56 70.43 21.47 78.91 21.59 C 71.43 29.43 63.49 36.94 55.97 44.76 C 60.33 48.68 64.36 52.98 68.47 57.15 C 64.16 57.61 59.83 57.26 55.49 57.44 C 55.48 61.39 55.45 65.35 55.53 69.30 C 51.57 65.19 47.49 61.18 43.44 57.15 C 35.98 64.63 28.35 72.35 20.84 79.75 C 20.77 71.36 20.80 62.96 20.82 54.56 C 28.93 54.53 37.04 54.68 45.15 54.49 C 41.90 52.16 39.15 49.07 36.36 46.22 C 36.41 40.58 36.35 34.94 36.40 29.30 C 34.34 27.12 32.14 25.07 30.14 22.83 C 29.30 22.06 28.45 21.32 27.57 20.60 Z" id="p1-birdhigh" />
</defs>
<g stroke-width="10pt">
<use stroke="#ffffff" xlink:href="#p0-birdhigh" />
<use stroke="currentColor" xlink:href="#p1-birdhigh" />
</g>
<g>
<use fill="#ffffff" xlink:href="#p0-birdhigh" />
<use fill="currentColor" xlink:href="#p1-birdhigh" />
</g>
</svg>