<?xml version="1.0" encoding="UTF-8" standalone="no"?>
<!DOCTYPE svg PUBLIC "-//W3C//DTD SVG 1.1//EN" "http://www.w3.org/Graphics/SVG/1.1/DTD/svg11.dtd">
<svg xmlns="http://www.w3.org/2000/svg" version="1.1" viewBox="0 0 98 98" width="98.0pt" height="98.0pt" xmlns:xlink="http://www.w3.org/1999/xlink">
<defs>
<path d="M 0.00 0.00 L 98.00 0.00 L 98.00 98.00 L 0.00 98.00 L 0.00 0.00 Z M 47.31 7.37 C 47.19 18.04 47.20 28.73 47.36 39.40 C 41.55 39.35 35.73 39.21 29.94 39.46 C 32.35 41.92 34.85 44.29 37.32 46.68 C 37.76 47.09 37.84 47.73 37.56 48.60 C 35.15 51.43 31.46 53.75 29.83 57.10 C 35.63 57.20 41.43 57.10 47.23 57.16 C 47.27 67.94 47.21 78.72 47.31 89.50 C 53.33 83.66 59.14 77.60 65.16 71.77 C 59.85 65.74 53.86 60.21 48.14 54.54 C 51.69 54.74 55.28 54.66 58.85 54.62 C 62.95 58.71 67.08 62.76 71.11 66.92 C 75.44 62.62 79.77 58.33 84.03 53.96 C 79.97 54.38 76.06 54.15 71.98 54.13 C 68.01 50.15 64.05 46.15 60.03 42.21 C 56.00 41.73 52.05 42.51 48.03 41.68 C 53.96 36.46 59.31 30.56 64.97 25.05 C 59.08 19.17 53.17 13.29 47.31 7.37 Z" id="p0-birdlow" />
<path d="M 47.31 7.37 C 53.17 13.29 59.08 19.17 64.97 25.05 C 59.31 30.56 53.96 36.46 48.03 41.68 C 52.05 42.51 56.00 41.73 60.03 42.21 C 64.05 46.15 68.01 50.15 71.98 54.13 C 76.06 54.15 79.97 54.38 84.03 53.96 C 79.77 58.33 75.44 62.62 71.11 66.92 C 67.08 62.76 62.95 58.71 58.85 54.62 C 55.28 54.66 51.69 54.74 48.14 54.54 C 53.86 60.21 59.85 65.74 65.16 71.77 C 59.14 77.60 53.33 83.66 47.31 89.50 C 47.21 78.72 47.27 67.94 47.23 57.16 C 41.43 57.10 35.63 57.20 29.83 57.10 C 31.46 53.75 35.15 51.43 37.56 48.60 C 37.84 47.73 37.76 47.09 37.32 46.68 C 34.85 44.29 32.35 41.92 29.94 39.46 C 35.73 39.21 41.55 39.35 47.36 39.40 C 47.20 28.73 47.19 18.04 47.31 7.37 Z" id="p1-birdlow" />
</defs>
<g stroke-width="10pt">
<use stroke="#ffffff" xlink:href="#p0-birdlow" />
<use stroke="currentColor" xlink:href="#p1-birdlow" />
</g>
<g>
<use fill="#ffffff" xlink:href="#p0-birdlow" />
<use fill="currentColor" xlink:href="#p1-birdlow" />
</g>
</svg>