<?xml version="1.0" encoding="UTF-8" standalone="no"?>
<!DOCTYPE svg PUBLIC "-//W3C//DTD SVG 1.1//EN" "http://www.w3.org/Graphics/SVG/1.1/DTD/svg11.dtd">
<svg xmlns="http://www.w3.org/2000/svg" version="1.1" viewBox="0 0 120 120" width="120.0pt" height="120.0pt" xmlns:xlink="http://www.w3.org/1999/xlink">
<defs>
<path d="M 0.00 0.00 L 120.00 0.00 L 120.00 120.00 L 0.00 120.00 L 0.00 0.00 Z M 53.25 10.18 C 34.78 12.77 18.82 26.05 12.87 43.71 C 8.71 56.02 9.42 70.13 15.14 81.83 C 20.72 93.37 30.76 102.63 42.78 107.12 C 57.87 112.78 75.49 110.93 88.88 101.87 C 99.04 95.09 106.61 84.56 109.67 72.72 C 112.13 63.15 111.76 52.81 108.51 43.46 C 103.64 29.40 92.29 17.82 78.29 12.75 C 70.28 9.75 61.70 9.12 53.25 10.18 Z" id="p0" />
<path d="M 53.25 10.18 C 61.70 9.12 70.28 9.75 78.29 12.75 C 92.29 17.82 103.64 29.40 108.51 43.46 C 111.76 52.81 112.13 63.15 109.67 72.72 C 106.61 84.56 99.04 95.09 88.88 101.87 C 75.49 110.93 57.87 112.78 42.78 107.12 C 30.76 102.63 20.72 93.37 15.14 81.83 C 9.42 70.13 8.71 56.02 12.87 43.71 C 18.82 26.05 34.78 12.77 53.25 10.18 Z" id="p1" />
</defs>
<g stroke-width="10pt">
<use stroke="#ffffff" xlink:href="#p0" />
<use stroke="#0076d8" xlink:href="#p1" />
</g>
<g>
<use fill="#ffffff" xlink:href="#p0" />
<use fill="#0076d8" xlink:href="#p1" />
</g>
</svg>