<?xml version="1.0" encoding="UTF-8" standalone="no"?>
<!DOCTYPE svg PUBLIC "-//W3C//DTD SVG 1.1//EN" "http://www.w3.org/Graphics/SVG/1.1/DTD/svg11.dtd">
<svg xmlns="http://www.w3.org/2000/svg" version="1.1" viewBox="0 0 120 120" width="120.0pt" height="120.0pt" xmlns:xlink="http://www.w3.org/1999/xlink">
<defs>
<path d="M 0.00 0.00 L 120.00 0.00 L 120.00 120.00 L 0.00 120.00 L 0.00 0.00 Z M 53.42 9.47 C 39.50 11.36 26.69 19.08 18.61 30.58 C 8.10 45.02 6.35 65.04 13.76 81.22 C 19.63 94.11 30.97 104.34 44.49 108.64 C 52.03 111.22 59.90 111.47 67.77 110.65 C 82.37 108.67 95.75 100.07 103.64 87.63 C 113.58 72.53 114.38 52.09 105.79 36.21 C 99.28 23.90 87.67 14.50 74.21 10.88 C 67.61 8.88 60.24 8.92 53.42 9.47 Z" id="p0" />
<path d="M 53.42 9.47 C 60.24 8.92 67.61 8.88 74.21 10.88 C 87.67 14.50 99.28 23.90 105.79 36.21 C 114.38 52.09 113.58 72.53 103.64 87.63 C 95.75 100.07 82.37 108.67 67.77 110.65 C 59.90 111.47 52.03 111.22 44.49 108.64 C 30.97 104.34 19.63 94.11 13.76 81.22 C 6.35 65.04 8.10 45.02 18.61 30.58 C 26.69 19.08 39.50 11.36 53.42 9.47 Z" id="p1" />
</defs>
<g stroke-width="10pt">
<use stroke="#ffffff" xlink:href="#p0" />
<use stroke="#316478" xlink:href="#p1" />
</g>
<g>
<use fill="#ffffff" xlink:href="#p0" />
<use fill="#316478" xlink:href="#p1" />
</g>
</svg>