<?xml version="1.0" encoding="UTF-8" standalone="no"?>
<!DOCTYPE svg PUBLIC "-//W3C//DTD SVG 1.1//EN" "http://www.w3.org/Graphics/SVG/1.1/DTD/svg11.dtd">
<svg xmlns="http://www.w3.org/2000/svg" version="1.1" viewBox="0 0 120 120" width="120.0pt" height="120.0pt" xmlns:xlink="http://www.w3.org/1999/xlink">
<defs>
<path d="M 0.00 0.00 L 120.00 0.00 L 120.00 120.00 L 0.00 120.00 L 0.00 0.00 Z M 52.19 10.03 C 39.51 12.14 28.03 18.99 20.18 29.16 C 9.51 42.63 6.74 61.39 12.53 77.51 C 17.73 92.02 29.73 103.80 44.41 108.57 C 52.02 111.21 60.08 111.59 68.03 110.66 C 82.56 108.67 95.86 100.07 103.71 87.70 C 113.36 73.04 114.33 53.21 106.41 37.58 C 100.20 25.18 88.87 15.48 75.52 11.56 C 68.07 9.19 59.89 9.03 52.19 10.03 Z" id="p0" />
<path d="M 52.19 10.03 C 59.89 9.03 68.07 9.19 75.52 11.56 C 88.87 15.48 100.20 25.18 106.41 37.58 C 114.33 53.21 113.36 73.04 103.71 87.70 C 95.86 100.07 82.56 108.67 68.03 110.66 C 60.08 111.59 52.02 111.21 44.41 108.57 C 29.73 103.80 17.73 92.02 12.53 77.51 C 6.74 61.39 9.51 42.63 20.18 29.16 C 28.03 18.99 39.51 12.14 52.19 10.03 Z" id="p1" />
</defs>
<g stroke-width="10pt">
<use stroke="#ffffff" xlink:href="#p0" />
<use stroke="#847619" xlink:href="#p1" />
</g>
<g>
<use fill="#ffffff" xlink:href="#p0" />
<use fill="#847619" xlink:href="#p1" />
</g>
</svg>