<?xml version="1.0" encoding="UTF-8" standalone="no"?>
<!DOCTYPE svg PUBLIC "-//W3C//DTD SVG 1.1//EN" "http://www.w3.org/Graphics/SVG/1.1/DTD/svg11.dtd">
<svg xmlns="http://www.w3.org/2000/svg" version="1.1" viewBox="0 0 120 120" width="120.0pt" height="120.0pt" xmlns:xlink="http://www.w3.org/1999/xlink">
<defs>
<path d="M 0.00 0.00 L 120.00 0.00 L 120.00 120.00 L 0.00 120.00 L 0.00 0.00 Z M 55.21 15.09 C 37.50 16.98 21.92 29.42 16.08 46.23 C 11.79 58.45 12.75 72.62 18.96 84.03 C 27.04 99.26 43.65 109.42 61.00 108.81 C 79.38 109.21 96.57 97.60 103.95 80.91 C 108.89 69.85 109.20 56.43 104.89 45.12 C 99.55 31.11 87.35 20.06 72.79 16.35 C 67.12 14.80 61.04 14.58 55.21 15.09 Z" id="p0" />
<path d="M 55.21 15.09 C 61.04 14.58 67.12 14.80 72.79 16.35 C 87.35 20.06 99.55 31.11 104.89 45.12 C 109.20 56.43 108.89 69.85 103.95 80.91 C 96.57 97.60 79.38 109.21 61.00 108.81 C 43.65 109.42 27.04 99.26 18.96 84.03 C 12.75 72.62 11.79 58.45 16.08 46.23 C 21.92 29.42 37.50 16.98 55.21 15.09 Z" id="p1" />
</defs>
<g stroke-width="10pt">
<use stroke="#ffffff" xlink:href="#p0" />
<use stroke="#7f4d1f" xlink:href="#p1" />
</g>
<g>
<use fill="#ffffff" xlink:href="#p0" />
<use fill="#7f4d1f" xlink:href="#p1" />
</g>
</svg>