<?xml version="1.0" encoding="UTF-8" standalone="no"?>
<!DOCTYPE svg PUBLIC "-//W3C//DTD SVG 1.1//EN" "http://www.w3.org/Graphics/SVG/1.1/DTD/svg11.dtd">
<svg xmlns="http://www.w3.org/2000/svg" version="1.1" viewBox="0 0 98 98" width="98.0pt" height="98.0pt" xmlns:xlink="http://www.w3.org/1999/xlink">
<defs>
<path d="M 0.00 0.00 L 98.00 0.00 L 98.00 98.00 L 0.00 98.00 L 0.00 0.00 Z M 17.35 24.35 C 21.40 27.43 24.60 31.60 28.20 35.19 C 28.23 41.12 28.05 47.07 28.28 52.99 C 29.83 54.90 31.81 56.49 33.47 58.31 C 33.53 66.57 32.88 75.02 33.92 83.22 C 34.13 82.74 34.33 82.25 34.54 81.77 C 41.96 74.43 49.20 66.57 56.81 59.32 C 61.04 64.32 65.82 68.92 70.41 73.60 C 72.72 76.06 75.59 78.30 77.34 81.19 C 77.32 70.22 77.28 59.25 77.36 48.28 C 74.09 45.01 70.85 41.70 67.59 38.41 C 63.37 33.82 58.66 30.04 54.90 25.02 C 50.94 29.10 46.80 33.00 42.86 37.09 C 41.42 37.13 39.98 37.18 38.54 37.23 C 38.52 32.86 38.60 28.52 38.49 24.16 C 31.45 24.47 24.39 24.15 17.35 24.35 Z" id="p0-camelhigh" />
<path d="M 17.35 24.35 C 24.39 24.15 31.45 24.47 38.49 24.16 C 38.60 28.52 38.52 32.86 38.54 37.23 C 39.98 37.18 41.42 37.13 42.86 37.09 C 46.80 33.00 50.94 29.10 54.90 25.02 C 58.66 30.04 63.37 33.82 67.59 38.41 C 70.85 41.70 74.09 45.01 77.36 48.28 C 77.28 59.25 77.32 70.22 77.34 81.19 C 75.59 78.30 72.72 76.06 70.41 73.60 C 65.82 68.92 61.04 64.32 56.81 59.32 C 49.20 66.57 41.96 74.43 34.54 81.77 C 34.33 82.25 34.13 82.74 33.92 83.22 C 32.88 75.02 33.53 66.57 33.47 58.31 C 31.81 56.49 29.83 54.90 28.28 52.99 C 28.05 47.07 28.23 41.12 28.20 35.19 C 24.60 31.60 21.40 27.43 17.35 24.35 Z" id="p1-camelhigh" />
</defs>
<g stroke-width="10pt">
<use stroke="#ffffff" xlink:href="#p0-camelhigh" />
<use stroke="currentColor" xlink:href="#p1-camelhigh" />
</g>
<g>
<use fill="#ffffff" xlink:href="#p0-camelhigh" />
<use fill="currentColor" xlink:href="#p1-camelhigh" />
</g>
</svg>