<?xml version="1.0" encoding="UTF-8" standalone="no"?>
<!DOCTYPE svg PUBLIC "-//W3C//DTD SVG 1.1//EN" "http://www.w3.org/Graphics/SVG/1.1/DTD/svg11.dtd">
<svg xmlns="http://www.w3.org/2000/svg" version="1.1" viewBox="0 0 98 98" width="98.0pt" height="98.0pt" xmlns:xlink="http://www.w3.org/1999/xlink">
<defs>
<path d="M 0.00 0.00 L 98.00 0.00 L 98.00 98.00 L 0.00 98.00 L 0.00 0.00 Z M 35.62 15.03 C 36.61 25.55 36.09 36.03 36.47 46.56 C 33.56 47.85 31.01 46.81 27.98 46.79 C 20.77 46.60 13.54 46.83 6.34 46.47 C 12.88 52.65 19.11 59.17 25.51 65.49 C 26.95 66.81 28.31 68.69 30.02 69.61 C 40.61 69.66 51.21 69.61 61.80 69.87 C 61.55 64.29 61.89 58.71 61.67 53.12 C 62.74 52.10 63.81 51.08 64.89 50.07 C 67.59 53.57 70.94 56.28 73.94 59.52 C 78.75 54.39 83.73 49.10 89.11 44.57 C 84.05 44.20 78.96 44.34 73.87 44.28 C 69.35 40.15 65.17 35.64 60.77 31.38 C 58.39 31.44 56.01 31.48 53.63 31.52 C 48.70 26.72 43.91 21.79 39.02 16.96 C 38.07 15.94 36.87 15.53 35.62 15.03 Z" id="p0-camellow" />
<path d="M 39.02 16.96 C 43.91 21.79 48.70 26.72 53.63 31.52 C 56.01 31.48 58.39 31.44 60.77 31.38 C 65.17 35.64 69.35 40.15 73.87 44.28 C 78.96 44.34 84.05 44.20 89.11 44.57 C 83.73 49.10 78.75 54.39 73.94 59.52 C 70.94 56.28 67.59 53.57 64.89 50.07 C 63.81 51.08 62.74 52.10 61.67 53.12 C 61.89 58.71 61.55 64.29 61.80 69.87 C 51.21 69.61 40.61 69.66 30.02 69.61 C 28.31 68.69 26.95 66.81 25.51 65.49 C 19.11 59.17 12.88 52.65 6.34 46.47 C 13.54 46.83 20.77 46.60 27.98 46.79 C 31.01 46.81 33.56 47.85 36.47 46.56 C 36.09 36.03 36.61 25.55 35.62 15.03 C 36.87 15.53 38.07 15.94 39.02 16.96 Z" id="p1-camellow" />
</defs>
<g stroke-width="10pt">
<use stroke="#ffffff" xlink:href="#p0-camellow" />
<use stroke="currentColor" xlink:href="#p1-camellow" />
</g>
<g>
<use fill="#ffffff" xlink:href="#p0-camellow" />
<use fill="currentColor" xlink:href="#p1-camellow" />
</g>
</svg>