<?xml version="1.0" encoding="UTF-8" standalone="no"?>
<!DOCTYPE svg PUBLIC "-//W3C//DTD SVG 1.1//EN" "http://www.w3.org/Graphics/SVG/1.1/DTD/svg11.dtd">
<svg xmlns="http://www.w3.org/2000/svg" version="1.1" viewBox="0 0 98 98" width="98.0pt" height="98.0pt" xmlns:xlink="http://www.w3.org/1999/xlink">
<defs>
<path d="M 0.00 0.00 L 98.00 0.00 L 98.00 98.00 L 0.00 98.00 L 0.00 0.00 Z M 63.32 18.97 C 63.38 23.52 63.29 28.07 63.37 32.62 C 52.52 32.77 41.66 32.61 30.80 32.70 C 25.63 38.27 19.98 43.40 14.84 49.01 C 14.88 54.04 14.88 59.08 14.84 64.11 C 20.28 69.40 25.56 74.86 31.00 80.15 C 35.69 80.17 40.38 80.20 45.06 80.12 C 43.96 78.46 42.57 77.11 41.10 75.80 C 37.53 72.30 34.18 68.53 30.43 65.23 C 30.42 64.73 30.41 64.22 30.41 63.72 C 46.21 63.71 62.03 63.57 77.84 63.80 C 72.52 59.62 68.29 54.20 63.16 49.78 C 63.08 46.55 63.10 43.32 63.12 40.09 C 70.11 40.10 77.11 40.12 84.10 40.08 C 77.18 33.05 70.01 26.21 63.32 18.97 Z" id="p0-cathigh" />
<path d="M 63.32 18.97 C 70.01 26.21 77.18 33.05 84.10 40.08 C 77.11 40.12 70.11 40.10 63.12 40.09 C 63.10 43.32 63.08 46.55 63.16 49.78 C 68.29 54.20 72.52 59.62 77.84 63.80 C 62.03 63.57 46.21 63.71 30.41 63.72 C 30.41 64.22 30.42 64.73 30.43 65.23 C 34.18 68.53 37.53 72.30 41.10 75.80 C 42.57 77.11 43.96 78.46 45.06 80.12 C 40.38 80.20 35.69 80.17 31.00 80.15 C 25.56 74.86 20.28 69.40 14.84 64.11 C 14.88 59.08 14.88 54.04 14.84 49.01 C 19.98 43.40 25.63 38.27 30.80 32.70 C 41.66 32.61 52.52 32.77 63.37 32.62 C 63.29 28.07 63.38 23.52 63.32 18.97 Z" id="p1-cathigh" />
</defs>
<g stroke-width="10pt">
<use stroke="#ffffff" xlink:href="#p0-cathigh" />
<use stroke="#060606" xlink:href="#p1-cathigh" />
</g>
<g>
<use fill="#ffffff" xlink:href="#p0-cathigh" />
<use fill="#060606" xlink:href="#p1-cathigh" />
</g>
</svg>