<?xml version="1.0" encoding="UTF-8" standalone="no"?>
<!DOCTYPE svg PUBLIC "-//W3C//DTD SVG 1.1//EN" "http://www.w3.org/Graphics/SVG/1.1/DTD/svg11.dtd">
<svg xmlns="http://www.w3.org/2000/svg" version="1.1" viewBox="0 0 98 98" width="98.0pt" height="98.0pt" xmlns:xlink="http://www.w3.org/1999/xlink">
<defs>
<path d="M 0.00 0.00 L 98.00 0.00 L 98.00 98.00 L 0.00 98.00 L 0.00 0.00 Z M 52.93 17.88 C 54.17 19.73 55.78 21.18 57.41 22.67 C 60.76 26.05 63.98 29.60 67.55 32.75 C 67.57 33.26 67.59 33.77 67.61 34.28 C 51.80 34.29 35.96 34.44 20.15 34.20 C 25.48 38.37 29.71 43.80 34.84 48.22 C 34.92 51.45 34.90 54.68 34.88 57.91 C 27.89 57.90 20.89 57.88 13.90 57.92 C 20.82 64.95 27.98 71.79 34.69 79.03 C 34.61 74.48 34.71 69.93 34.63 65.39 C 45.47 65.23 56.33 65.38 67.17 65.31 C 72.37 59.75 78.00 54.60 83.16 49.00 C 83.12 43.97 83.11 38.93 83.16 33.90 C 77.73 28.60 72.44 23.14 67.00 17.85 C 62.31 17.83 57.61 17.80 52.93 17.88 Z" id="p0-catlow" />
<path d="M 52.93 17.88 C 57.61 17.80 62.31 17.83 67.00 17.85 C 72.44 23.14 77.73 28.60 83.16 33.90 C 83.11 38.93 83.12 43.97 83.16 49.00 C 78.00 54.60 72.37 59.75 67.17 65.31 C 56.33 65.38 45.47 65.23 34.63 65.39 C 34.71 69.93 34.61 74.48 34.69 79.03 C 27.98 71.79 20.82 64.95 13.90 57.92 C 20.89 57.88 27.89 57.90 34.88 57.91 C 34.90 54.68 34.92 51.45 34.84 48.22 C 29.71 43.80 25.48 38.37 20.15 34.20 C 35.96 34.44 51.80 34.29 67.61 34.28 C 67.59 33.77 67.57 33.26 67.55 32.75 C 63.98 29.60 60.76 26.05 57.41 22.67 C 55.78 21.18 54.17 19.73 52.93 17.88 Z" id="p1-catlow" />
</defs>
<g stroke-width="10pt">
<use stroke="#ffffff" xlink:href="#p0-catlow" />
<use stroke="#060606" xlink:href="#p1-catlow" />
</g>
<g>
<use fill="#ffffff" xlink:href="#p0-catlow" />
<use fill="#060606" xlink:href="#p1-catlow" />
</g>
</svg>