<?xml version="1.0" standalone="yes"?>
<svg xmlns="http://www.w3.org/2000/svg" width="160" height="160">
<path style="fill:#ffffff; stroke:none;" d="M0 0L0 160L160 160L160 0L0 0z"/>
<path style="fill:#9f9f9f; stroke:none;" d="M71.6667 44.3333L72.3333 44.6667L71.6667 44.3333z"/>
<path style="fill:#6d6d6d; stroke:none;" d="M73 44L74 45L73 44z"/>
<path style="fill:#4f4f4f; stroke:none;" d="M74 44L75 45L74 44z"/>
<path style="fill:#010101; stroke:none;" d="M79 127L89 127L89 120C94.3913 119.039 97.8941 115.85 103 119C109.875 114.976 108.64 109.425 112.129 103C115.406 96.9658 116.969 90.8516 116.999 84C117.027 77.6779 116.377 71.8075 113.676 66C93.6275 22.887 29.9491 51.1336 43.0424 95C45.9328 104.683 53.0787 112.828 62 117.506C67.9931 120.649 77.7446 119.128 79 127z"/>
<path style="fill:#4f4f4f; stroke:none;" d="M83.6667 44.3333L84.3333 44.6667L83.6667 44.3333z"/>
<path style="fill:#6d6d6d; stroke:none;" d="M85 44L86 45L85 44z"/>
<path style="fill:#9f9f9f; stroke:none;" d="M86 44L87 45L86 44M68 45L69 46L68 45z"/>
<path style="fill:#4f4f4f; stroke:none;" d="M69 45L70 46L69 45M89 45L90 46L89 45z"/>
<path style="fill:#9f9f9f; stroke:none;" d="M90 45L91 46L90 45M65 46L66 47L65 46z"/>
<path style="fill:#4f4f4f; stroke:none;" d="M66 46L67 47L66 46M92 46L93 47L92 46z"/>
<path style="fill:#9f9f9f; stroke:none;" d="M93 46L94 47L93 46z"/>
<path style="fill:#6d6d6d; stroke:none;" d="M63 47L64 48L63 47z"/>
<path style="fill:#9f9f9f; stroke:none;" d="M95 47L96 48L95 47z"/>
<path style="fill:#6d6d6d; stroke:none;" d="M61 48L62 49L61 48z"/>
<path style="fill:#9f9f9f; stroke:none;" d="M97 48L98 49L97 48M59 49L60 50L59 49z"/>
<path style="fill:#4f4f4f; stroke:none;" d="M98 49L99 50L98 49z"/>
<path style="fill:#9f9f9f; stroke:none;" d="M99 49L100 50L99 49z"/>
<path style="fill:#4f4f4f; stroke:none;" d="M58 50L59 51L58 50z"/>
<path style="fill:#6d6d6d; stroke:none;" d="M100 50L101 51L100 50z"/>
<path style="fill:#9f9f9f; stroke:none;" d="M56 51L57 52L56 51z"/>
<path style="fill:#4f4f4f; stroke:none;" d="M101 51L102 52L101 51M55 52L56 53L55 52z"/>
<path style="fill:#9f9f9f; stroke:none;" d="M103 52L104 53L103 52z"/>
<path style="fill:#4f4f4f; stroke:none;" d="M54 53L55 54L54 53z"/>
<path style="fill:#6d6d6d; stroke:none;" d="M104 53L105 54L104 53z"/>
<path style="fill:#4f4f4f; stroke:none;" d="M53 54L54 55L53 54z"/>
<path style="fill:#6d6d6d; stroke:none;" d="M105 54L106 55L105 54M106 55L107 56L106 55z"/>
<path style="fill:#4f4f4f; stroke:none;" d="M51 56L52 57L51 56z"/>
<path style="fill:#6d6d6d; stroke:none;" d="M107 56L108 57L107 56z"/>
<path style="fill:#4f4f4f; stroke:none;" d="M50 57L51 58L50 57z"/>
<path style="fill:#9f9f9f; stroke:none;" d="M108 57L109 58L108 57z"/>
<path style="fill:#6d6d6d; stroke:none;" d="M49 58L50 59L49 58z"/>
<path style="fill:#9f9f9f; stroke:none;" d="M109 58L110 59L109 58M48 59L49 60L48 59z"/>
<path style="fill:#4f4f4f; stroke:none;" d="M110 60L111 61L110 60M47 61L48 62L47 61z"/>
<path style="fill:#9f9f9f; stroke:none;" d="M111 61L112 62L111 61M46 62L47 63L46 62z"/>
<path style="fill:#6d6d6d; stroke:none;" d="M112 63L113 64L112 63M45 64L46 65L45 64z"/>
<path style="fill:#9f9f9f; stroke:none;" d="M113 64L114 65L113 64z"/>
<path style="fill:#4f4f4f; stroke:none;" d="M113 65L114 66L113 65z"/>
<path style="fill:#6d6d6d; stroke:none;" d="M44 66L45 67L44 66M114 67L115 68L114 67z"/>
<path style="fill:#9f9f9f; stroke:none;" d="M43 68L44 69L43 68z"/>
<path style="fill:#4f4f4f; stroke:none;" d="M43 69L44 70L43 69z"/>
<path style="fill:#9f9f9f; stroke:none;" d="M115 69L116 70L115 69z"/>
<path style="fill:#4f4f4f; stroke:none;" d="M115 70L116 71L115 70z"/>
<path style="fill:#9f9f9f; stroke:none;" d="M42 71L43 72L42 71z"/>
<path style="fill:#4f4f4f; stroke:none;" d="M42 72L43 73L42 72z"/>
<path style="fill:#9f9f9f; stroke:none;" d="M116 72L117 73L116 72z"/>
<path style="fill:#6d6d6d; stroke:none;" d="M116 73L117 74L116 73z"/>
<path style="fill:#4f4f4f; stroke:none;" d="M116 74L117 75L116 74z"/>
<path style="fill:#9f9f9f; stroke:none;" d="M41 75L42 76L41 75z"/>
<path style="fill:#6d6d6d; stroke:none;" d="M41 76L42 77L41 76z"/>
<path style="fill:#9f9f9f; stroke:none;" d="M117.333 76.6667L117.667 77.3333L117.333 76.6667z"/>
<path style="fill:#4f4f4f; stroke:none;" d="M41.3333 77.6667L41.6667 78.3333L41.3333 77.6667z"/>
<path style="fill:#6d6d6d; stroke:none;" d="M117.333 78.6667L117.667 79.3333L117.333 78.6667z"/>
<path style="fill:#4f4f4f; stroke:none;" d="M117 80L117 86L118 86L117 80z"/>
<path style="fill:#6d6d6d; stroke:none;" d="M117 86L118 87L117 86z"/>
<path style="fill:#4f4f4f; stroke:none;" d="M41.3333 87.6667L41.6667 88.3333L41.3333 87.6667z"/>
<path style="fill:#9f9f9f; stroke:none;" d="M117 87L117 90L118 90L117 87z"/>
<path style="fill:#6d6d6d; stroke:none;" d="M41 89L42 90L41 89z"/>
<path style="fill:#9f9f9f; stroke:none;" d="M41 90L42 91L41 90z"/>
<path style="fill:#4f4f4f; stroke:none;" d="M116 91L117 92L116 91z"/>
<path style="fill:#6d6d6d; stroke:none;" d="M116 92L117 93L116 92z"/>
<path style="fill:#4f4f4f; stroke:none;" d="M42 93L43 94L42 93z"/>
<path style="fill:#9f9f9f; stroke:none;" d="M116 93L117 94L116 93M42 94L43 95L42 94z"/>
<path style="fill:#4f4f4f; stroke:none;" d="M115 95L116 96L115 95M43 96L44 97L43 96z"/>
<path style="fill:#9f9f9f; stroke:none;" d="M115 96L116 97L115 96M43 97L44 98L43 97z"/>
<path style="fill:#6d6d6d; stroke:none;" d="M114 98L115 99L114 98z"/>
<path style="fill:#9f9f9f; stroke:none;" d="M44 99L45 100L44 99z"/>
<path style="fill:#6d6d6d; stroke:none;" d="M113 100L114 101L113 100z"/>
<path style="fill:#9f9f9f; stroke:none;" d="M45 101L46 102L45 101z"/>
<path style="fill:#6d6d6d; stroke:none;" d="M112 102L113 103L112 102z"/>
<path style="fill:#9f9f9f; stroke:none;" d="M46 103L47 104L46 103z"/>
<path style="fill:#4f4f4f; stroke:none;" d="M47 104L48 105L47 104z"/>
<path style="fill:#9f9f9f; stroke:none;" d="M111 104L112 105L111 104z"/>
<path style="fill:#6d6d6d; stroke:none;" d="M110 105L111 106L110 105z"/>
<path style="fill:#9f9f9f; stroke:none;" d="M48 106L49 107L48 106z"/>
<path style="fill:#6d6d6d; stroke:none;" d="M49 107L50 108L49 107M50 108L51 109L50 108z"/>
<path style="fill:#9f9f9f; stroke:none;" d="M108.333 108.667L108.667 109.333L108.333 108.667z"/>
<path style="fill:#4f4f4f; stroke:none;" d="M51 109L52 110L51 109M52 110L53 111L52 110M53 111L54 112L53 111M109 111L110 112L109 111M54 112L55 113L54 112M110.333 112.667L110.667 113.333L110.333 112.667z"/>
<path style="fill:#6d6d6d; stroke:none;" d="M55 113L56 114L55 113z"/>
<path style="fill:#9f9f9f; stroke:none;" d="M56 114L57 115L56 114z"/>
<path style="fill:#6d6d6d; stroke:none;" d="M109 114L110 115L109 114z"/>
<path style="fill:#4f4f4f; stroke:none;" d="M58 115L59 116L58 115z"/>
<path style="fill:#9f9f9f; stroke:none;" d="M108 115L109 116L108 115M59 116L60 117L59 116z"/>
<path style="fill:#4f4f4f; stroke:none;" d="M60 116L61 117L60 116M98 116L99 117L98 116z"/>
<path style="fill:#9f9f9f; stroke:none;" d="M107 116L108 117L107 116M61 117L62 118L61 117z"/>
<path style="fill:#4f4f4f; stroke:none;" d="M96 117L97 118L96 117z"/>
<path style="fill:#9f9f9f; stroke:none;" d="M97 117L98 118L97 117M101 117L102 118L101 117z"/>
<path style="fill:#4f4f4f; stroke:none;" d="M105 117L106 118L105 117z"/>
<path style="fill:#9f9f9f; stroke:none;" d="M63 118L64 119L63 118z"/>
<path style="fill:#4f4f4f; stroke:none;" d="M94 118L95 119L94 118z"/>
<path style="fill:#9f9f9f; stroke:none;" d="M95 118L96 119L95 118M102 118L103 119L102 118z"/>
<path style="fill:#4f4f4f; stroke:none;" d="M104 118L105 119L104 118z"/>
<path style="fill:#9f9f9f; stroke:none;" d="M65 119L66 120L65 119z"/>
<path style="fill:#6d6d6d; stroke:none;" d="M66 119L67 120L66 119M92 119L93 120L92 119z"/>
<path style="fill:#9f9f9f; stroke:none;" d="M103 119L104 120L103 119M68 120L69 121L68 120z"/>
<path style="fill:#6d6d6d; stroke:none;" d="M69 120L70 121L69 120z"/>
<path style="fill:#4f4f4f; stroke:none;" d="M70 120L71 121L70 120z"/>
<path style="fill:#6d6d6d; stroke:none;" d="M89 120L90 121L89 120z"/>
<path style="fill:#9f9f9f; stroke:none;" d="M90 120L91 121L90 120M72.6667 121.333L73.3333 121.667L72.6667 121.333z"/>
<path style="fill:#6d6d6d; stroke:none;" d="M74 121L75 122L74 121z"/>
<path style="fill:#4f4f4f; stroke:none;" d="M75 121L75 122L78 122L75 121z"/>
</svg>
