<?xml version="1.0" standalone="yes"?>
<svg xmlns="http://www.w3.org/2000/svg" width="160" height="160">
<path style="fill:#ffffff; stroke:none;" d="M0 0L0 160L160 160L160 0L0 0z"/>
<path style="fill:#9f9f9f; stroke:none;" d="M51 45L50 47L51 45z"/>
<path style="fill:#5d5d5d; stroke:none;" d="M52 45L54 47L52 45z"/>
<path style="fill:#9f9f9f; stroke:none;" d="M72 45L72 46L79 46L72 45z"/>
<path style="fill:#5d5d5d; stroke:none;" d="M94 45L95 46L94 45z"/>
<path style="fill:#010101; stroke:none;" d="M45 51C50.1651 59.6563 38.0306 73.9027 38 85L34 85L33 94C40.9564 94.6146 41.8224 103.545 46.3287 109C53.5646 117.76 63.6539 122.765 75 123L75 129L85 129C85.4376 115.638 98.7969 124.375 106 118L106 117C101.586 110.641 112.896 95.5496 114 87L119 87L120 78L113 78C112.22 69.1263 107.076 63.1645 102.428 56C100.498 53.024 99.8213 48.7013 95.9799 47.4738C84.0685 43.6673 70.9664 48.1497 59.1698 49.4398C52.4549 50.1742 51.963 46.3457 45 51z"/>
<path style="fill:#9f9f9f; stroke:none;" d="M67 46L68 47L67 46z"/>
<path style="fill:#5d5d5d; stroke:none;" d="M68 46L69 47L68 46z"/>
<path style="fill:#303030; stroke:none;" d="M69 46L70 47L69 46M82 46L83 47L82 46z"/>
<path style="fill:#5d5d5d; stroke:none;" d="M83 46L84 47L83 46z"/>
<path style="fill:#9f9f9f; stroke:none;" d="M84 46L85 47L84 46z"/>
<path style="fill:#303030; stroke:none;" d="M93 46L94 47L93 46M95 46L96 47L95 46z"/>
<path style="fill:#5d5d5d; stroke:none;" d="M49 47L50 48L49 47z"/>
<path style="fill:#9f9f9f; stroke:none;" d="M54 47L55 48L54 47M63 47L64 48L63 47z"/>
<path style="fill:#5d5d5d; stroke:none;" d="M64 47L65 48L64 47z"/>
<path style="fill:#303030; stroke:none;" d="M86 47L87 48L86 47z"/>
<path style="fill:#5d5d5d; stroke:none;" d="M87 47L88 48L87 47M92 47L93 48L92 47z"/>
<path style="fill:#9f9f9f; stroke:none;" d="M97 47L98 48L97 47z"/>
<path style="fill:#5d5d5d; stroke:none;" d="M48 48L49 49L48 48z"/>
<path style="fill:#9f9f9f; stroke:none;" d="M55 48L56 49L55 48z"/>
<path style="fill:#5d5d5d; stroke:none;" d="M61 48L62 49L61 48z"/>
<path style="fill:#303030; stroke:none;" d="M62 48L63 49L62 48M89 48L90 49L89 48z"/>
<path style="fill:#9f9f9f; stroke:none;" d="M90.6667 48.3333L91.3333 48.6667L90.6667 48.3333z"/>
<path style="fill:#5d5d5d; stroke:none;" d="M98 48L99 49L98 48z"/>
<path style="fill:#303030; stroke:none;" d="M47 49L48 50L47 49z"/>
<path style="fill:#9f9f9f; stroke:none;" d="M56 49L57 50L56 49z"/>
<path style="fill:#5d5d5d; stroke:none;" d="M59 49L60 50L59 49M99 49L100 50L99 49z"/>
<path style="fill:#9f9f9f; stroke:none;" d="M45 50L46 51L45 50z"/>
<path style="fill:#303030; stroke:none;" d="M46 50L47 51L46 50z"/>
<path style="fill:#5d5d5d; stroke:none;" d="M57 50L58 51L57 50z"/>
<path style="fill:#303030; stroke:none;" d="M100 50L101 51L100 50M101 51L102 52L101 51z"/>
<path style="fill:#9f9f9f; stroke:none;" d="M45 52L46 53L45 52z"/>
<path style="fill:#5d5d5d; stroke:none;" d="M46 53L47 54L46 53z"/>
<path style="fill:#9f9f9f; stroke:none;" d="M100.333 53.6667L100.667 54.3333L100.333 53.6667z"/>
<path style="fill:#5d5d5d; stroke:none;" d="M47 54L48 55L47 54z"/>
<path style="fill:#303030; stroke:none;" d="M48 55L49 56L48 55z"/>
<path style="fill:#9f9f9f; stroke:none;" d="M101 55L102 56L101 55M102 56L103 57L102 56z"/>
<path style="fill:#5d5d5d; stroke:none;" d="M48 57L49 58L48 57z"/>
<path style="fill:#9f9f9f; stroke:none;" d="M103 57L104 58L103 57z"/>
<path style="fill:#5d5d5d; stroke:none;" d="M47 58L48 59L47 58z"/>
<path style="fill:#9f9f9f; stroke:none;" d="M104 58L105 59L104 58z"/>
<path style="fill:#5d5d5d; stroke:none;" d="M46 59L47 60L46 59z"/>
<path style="fill:#9f9f9f; stroke:none;" d="M105 59L106 60L105 59M45 60L46 61L45 60z"/>
<path style="fill:#303030; stroke:none;" d="M106 61L107 62L106 61M44 62L45 63L44 62z"/>
<path style="fill:#9f9f9f; stroke:none;" d="M107 62L108 63L107 62M43 63L44 64L43 63z"/>
<path style="fill:#303030; stroke:none;" d="M108 64L109 65L108 64z"/>
<path style="fill:#5d5d5d; stroke:none;" d="M42 65L43 66L42 65z"/>
<path style="fill:#9f9f9f; stroke:none;" d="M109 65L110 66L109 65M41 66L42 67L41 66z"/>
<path style="fill:#303030; stroke:none;" d="M109 66L110 67L109 66z"/>
<path style="fill:#5d5d5d; stroke:none;" d="M41 67L42 68L41 67z"/>
<path style="fill:#9f9f9f; stroke:none;" d="M110 67L111 68L110 67z"/>
<path style="fill:#303030; stroke:none;" d="M110 68L111 69L110 68z"/>
<path style="fill:#5d5d5d; stroke:none;" d="M40 69L41 70L40 69z"/>
<path style="fill:#9f9f9f; stroke:none;" d="M111 69L112 70L111 69z"/>
<path style="fill:#5d5d5d; stroke:none;" d="M111 70L112 71L111 70z"/>
<path style="fill:#9f9f9f; stroke:none;" d="M39 71L40 72L39 71z"/>
<path style="fill:#5d5d5d; stroke:none;" d="M39 72L40 73L39 72z"/>
<path style="fill:#9f9f9f; stroke:none;" d="M112 72L113 73L112 72z"/>
<path style="fill:#5d5d5d; stroke:none;" d="M112 73L113 74L112 73z"/>
<path style="fill:#9f9f9f; stroke:none;" d="M38.3333 74.6667L38.6667 75.3333L38.3333 74.6667M113 75L120 78L120 77L113 75z"/>
<path style="fill:#303030; stroke:none;" d="M38 76L39 77L38 76M113 77L114 78L113 77z"/>
<path style="fill:#9f9f9f; stroke:none;" d="M37 79L37 83L38 83L37 79z"/>
<path style="fill:#5d5d5d; stroke:none;" d="M37 83L38 84L37 83z"/>
<path style="fill:#303030; stroke:none;" d="M119 83L117 87L117 88L119 83z"/>
<path style="fill:#9f9f9f; stroke:none;" d="M33 84L34 85L33 84z"/>
<path style="fill:#5d5d5d; stroke:none;" d="M34.6667 84.3333L35.3333 84.6667L34.6667 84.3333z"/>
<path style="fill:#9f9f9f; stroke:none;" d="M36 84L37 85L36 84z"/>
<path style="fill:#303030; stroke:none;" d="M37 84L38 85L37 84M33 85L33 88L34 88L33 85z"/>
<path style="fill:#5d5d5d; stroke:none;" d="M114 87L114 88L117 88L114 87M119 87L120 88L119 87z"/>
<path style="fill:#303030; stroke:none;" d="M113 90L114 91L113 90z"/>
<path style="fill:#5d5d5d; stroke:none;" d="M113 91L114 92L113 91z"/>
<path style="fill:#9f9f9f; stroke:none;" d="M113.333 92.6667L113.667 93.3333L113.333 92.6667M33 94L33 95L36 95L33 94z"/>
<path style="fill:#5d5d5d; stroke:none;" d="M36.6667 94.3333L37.3333 94.6667L36.6667 94.3333z"/>
<path style="fill:#303030; stroke:none;" d="M38 94L39 95L38 94M112 95L113 96L112 95M39 96L40 97L39 96z"/>
<path style="fill:#9f9f9f; stroke:none;" d="M112 96L113 97L112 96M39 97L40 98L39 97z"/>
<path style="fill:#303030; stroke:none;" d="M111 98L112 99L111 98z"/>
<path style="fill:#5d5d5d; stroke:none;" d="M40 99L41 100L40 99z"/>
<path style="fill:#9f9f9f; stroke:none;" d="M111 99L112 100L111 99M40 100L41 101L40 100z"/>
<path style="fill:#303030; stroke:none;" d="M110 100L111 101L110 100M41 101L42 102L41 101z"/>
<path style="fill:#9f9f9f; stroke:none;" d="M110 101L111 102L110 101M41 102L42 103L41 102z"/>
<path style="fill:#303030; stroke:none;" d="M42 103L43 104L42 103z"/>
<path style="fill:#9f9f9f; stroke:none;" d="M109 103L110 104L109 103z"/>
<path style="fill:#303030; stroke:none;" d="M108 104L109 105L108 104z"/>
<path style="fill:#5d5d5d; stroke:none;" d="M43 105L44 106L43 105z"/>
<path style="fill:#9f9f9f; stroke:none;" d="M108 105L109 106L108 105z"/>
<path style="fill:#303030; stroke:none;" d="M44 106L45 107L44 106z"/>
<path style="fill:#5d5d5d; stroke:none;" d="M107 106L108 107L107 106z"/>
<path style="fill:#9f9f9f; stroke:none;" d="M44 107L45 108L44 107z"/>
<path style="fill:#303030; stroke:none;" d="M106 107L107 108L106 107z"/>
<path style="fill:#9f9f9f; stroke:none;" d="M45 108L46 109L45 108M106 108L107 109L106 108z"/>
<path style="fill:#5d5d5d; stroke:none;" d="M46 109L47 110L46 109z"/>
<path style="fill:#9f9f9f; stroke:none;" d="M105 109L106 110L105 109z"/>
<path style="fill:#303030; stroke:none;" d="M47 110L48 111L47 110z"/>
<path style="fill:#5d5d5d; stroke:none;" d="M104 110L105 111L104 110z"/>
<path style="fill:#303030; stroke:none;" d="M48 111L49 112L48 111z"/>
<path style="fill:#5d5d5d; stroke:none;" d="M103 111L104 112L103 111z"/>
<path style="fill:#303030; stroke:none;" d="M49 112L50 113L49 112z"/>
<path style="fill:#5d5d5d; stroke:none;" d="M102 112L103 113L102 112z"/>
<path style="fill:#303030; stroke:none;" d="M50 113L51 114L50 113M102 113L103 114L102 113M51 114L52 115L51 114M103 114L104 115L103 114z"/>
<path style="fill:#5d5d5d; stroke:none;" d="M52 115L53 116L52 115M104 115L105 116L104 115z"/>
<path style="fill:#9f9f9f; stroke:none;" d="M53 116L54 117L53 116M105 116L106 117L105 116z"/>
<path style="fill:#5d5d5d; stroke:none;" d="M55 117L56 118L55 117z"/>
<path style="fill:#9f9f9f; stroke:none;" d="M106 117L107 118L106 117M56 118L57 119L56 118z"/>
<path style="fill:#303030; stroke:none;" d="M57 118L58 119L57 118M105 118L106 119L105 118z"/>
<path style="fill:#9f9f9f; stroke:none;" d="M58 119L59 120L58 119z"/>
<path style="fill:#303030; stroke:none;" d="M59 119L60 120L59 119z"/>
<path style="fill:#5d5d5d; stroke:none;" d="M92 119L93 120L92 119z"/>
<path style="fill:#9f9f9f; stroke:none;" d="M93 119L94 120L93 119z"/>
<path style="fill:#5d5d5d; stroke:none;" d="M104 119L105 120L104 119z"/>
<path style="fill:#9f9f9f; stroke:none;" d="M60 120L61 121L60 120z"/>
<path style="fill:#303030; stroke:none;" d="M61 120L62 121L61 120z"/>
<path style="fill:#5d5d5d; stroke:none;" d="M90 120L91 121L90 120z"/>
<path style="fill:#9f9f9f; stroke:none;" d="M95 120L96 121L95 120M103 120L104 121L103 120M63 121L64 122L63 121z"/>
<path style="fill:#303030; stroke:none;" d="M64 121L65 122L64 121M87 121L88 122L87 121z"/>
<path style="fill:#9f9f9f; stroke:none;" d="M88 121L89 122L88 121M96 121L97 122L96 121M102 121L103 122L102 121M66 122L67 123L66 122z"/>
<path style="fill:#5d5d5d; stroke:none;" d="M67 122L68 123L67 122z"/>
<path style="fill:#303030; stroke:none;" d="M68 122L69 123L68 122z"/>
<path style="fill:#9f9f9f; stroke:none;" d="M85 122L86 123L85 122z"/>
<path style="fill:#5d5d5d; stroke:none;" d="M97 122L98 123L97 122z"/>
<path style="fill:#303030; stroke:none;" d="M100 122L101 123L100 122z"/>
<path style="fill:#9f9f9f; stroke:none;" d="M101 122L102 123L101 122M71 123L71 124L74 124L71 123z"/>
<path style="fill:#5d5d5d; stroke:none;" d="M74 123L75 124L74 123z"/>
<path style="fill:#303030; stroke:none;" d="M98.6667 123.333L99.3333 123.667L98.6667 123.333z"/>
</svg>
