<?xml version="1.0" standalone="yes"?>
<svg xmlns="http://www.w3.org/2000/svg" width="160" height="160">
<path style="fill:#ffffff; stroke:none;" d="M0 0L0 160L160 160L160 0L0 0z"/>
<path style="fill:#9d9d9d; stroke:none;" d="M71.6667 43.3333L72.3333 43.6667L71.6667 43.3333z"/>
<path style="fill:#5d5d5d; stroke:none;" d="M73.6667 43.3333L74.3333 43.6667L73.6667 43.3333z"/>
<path style="fill:#2d2d2d; stroke:none;" d="M75 43L75 44L80 44L75 43z"/>
<path style="fill:#5d5d5d; stroke:none;" d="M80.6667 43.3333L81.3333 43.6667L80.6667 43.3333z"/>
<path style="fill:#9d9d9d; stroke:none;" d="M82 43L82 44L85 44L82 43M67 44L68 45L67 44z"/>
<path style="fill:#5d5d5d; stroke:none;" d="M68 44L69 45L68 44z"/>
<path style="fill:#010101; stroke:none;" d="M77 121L77 126L87 126L87 119C128.542 112.773 122.191 45.0397 81 44.0147C46.3607 43.1527 24.1102 85.6472 52.0147 110.816C59.1586 117.259 67.6707 119.815 77 121z"/>
<path style="fill:#2d2d2d; stroke:none;" d="M86 44L87 45L86 44z"/>
<path style="fill:#5d5d5d; stroke:none;" d="M87 44L88 45L87 44z"/>
<path style="fill:#9d9d9d; stroke:none;" d="M88 44L89 45L88 44M64 45L65 46L64 45z"/>
<path style="fill:#2d2d2d; stroke:none;" d="M65 45L66 46L65 45z"/>
<path style="fill:#5d5d5d; stroke:none;" d="M90 45L91 46L90 45z"/>
<path style="fill:#9d9d9d; stroke:none;" d="M91 45L92 46L91 45z"/>
<path style="fill:#5d5d5d; stroke:none;" d="M62 46L63 47L62 46z"/>
<path style="fill:#2d2d2d; stroke:none;" d="M92 46L93 47L92 46z"/>
<path style="fill:#9d9d9d; stroke:none;" d="M93 46L94 47L93 46M59 47L60 48L59 47z"/>
<path style="fill:#5d5d5d; stroke:none;" d="M60 47L61 48L60 47z"/>
<path style="fill:#2d2d2d; stroke:none;" d="M94 47L95 48L94 47z"/>
<path style="fill:#9d9d9d; stroke:none;" d="M95 47L96 48L95 47z"/>
<path style="fill:#5d5d5d; stroke:none;" d="M58 48L59 49L58 48z"/>
<path style="fill:#2d2d2d; stroke:none;" d="M96 48L97 49L96 48z"/>
<path style="fill:#9d9d9d; stroke:none;" d="M97 48L98 49L97 48M56 49L57 50L56 49z"/>
<path style="fill:#5d5d5d; stroke:none;" d="M98 49L99 50L98 49M55 50L56 51L55 50z"/>
<path style="fill:#2d2d2d; stroke:none;" d="M99 50L100 51L99 50z"/>
<path style="fill:#9d9d9d; stroke:none;" d="M100 50L101 51L100 50z"/>
<path style="fill:#2d2d2d; stroke:none;" d="M54 51L55 52L54 51z"/>
<path style="fill:#9d9d9d; stroke:none;" d="M101 51L102 52L101 51M52 52L53 53L52 52z"/>
<path style="fill:#5d5d5d; stroke:none;" d="M102 52L103 53L102 52z"/>
<path style="fill:#9d9d9d; stroke:none;" d="M51 53L52 54L51 53z"/>
<path style="fill:#5d5d5d; stroke:none;" d="M103 53L104 54L103 53z"/>
<path style="fill:#9d9d9d; stroke:none;" d="M50 54L51 55L50 54z"/>
<path style="fill:#2d2d2d; stroke:none;" d="M104 54L105 55L104 54z"/>
<path style="fill:#9d9d9d; stroke:none;" d="M49 55L50 56L49 55z"/>
<path style="fill:#5d5d5d; stroke:none;" d="M105 55L106 56L105 55z"/>
<path style="fill:#9d9d9d; stroke:none;" d="M48 56L49 57L48 56z"/>
<path style="fill:#5d5d5d; stroke:none;" d="M106 56L107 57L106 56z"/>
<path style="fill:#9d9d9d; stroke:none;" d="M107 57L108 58L107 57z"/>
<path style="fill:#2d2d2d; stroke:none;" d="M47 58L48 59L47 58z"/>
<path style="fill:#9d9d9d; stroke:none;" d="M108 58L109 59L108 58z"/>
<path style="fill:#5d5d5d; stroke:none;" d="M46 59L47 60L46 59z"/>
<path style="fill:#2d2d2d; stroke:none;" d="M108 59L109 60L108 59z"/>
<path style="fill:#9d9d9d; stroke:none;" d="M45 60L46 61L45 60z"/>
<path style="fill:#5d5d5d; stroke:none;" d="M109 60L110 61L109 60z"/>
<path style="fill:#2d2d2d; stroke:none;" d="M45 61L46 62L45 61z"/>
<path style="fill:#9d9d9d; stroke:none;" d="M110 61L111 62L110 61M44 62L45 63L44 62z"/>
<path style="fill:#2d2d2d; stroke:none;" d="M110 62L111 63L110 62z"/>
<path style="fill:#9d9d9d; stroke:none;" d="M111 63L112 64L111 63z"/>
<path style="fill:#5d5d5d; stroke:none;" d="M43 64L44 65L43 64z"/>
<path style="fill:#9d9d9d; stroke:none;" d="M112 65L113 66L112 65M42 66L43 67L42 66z"/>
<path style="fill:#2d2d2d; stroke:none;" d="M112 66L113 67L112 66z"/>
<path style="fill:#9d9d9d; stroke:none;" d="M113 67L114 68L113 67M41 68L42 69L41 68z"/>
<path style="fill:#5d5d5d; stroke:none;" d="M113 68L114 69L113 68M41 69L42 70L41 69z"/>
<path style="fill:#9d9d9d; stroke:none;" d="M114 70L115 71L114 70M40.3333 71.6667L40.6667 72.3333L40.3333 71.6667z"/>
<path style="fill:#5d5d5d; stroke:none;" d="M114 71L115 72L114 71z"/>
<path style="fill:#2d2d2d; stroke:none;" d="M114 72L115 73L114 72M40 73L41 74L40 73z"/>
<path style="fill:#9d9d9d; stroke:none;" d="M115 74L116 75L115 74z"/>
<path style="fill:#5d5d5d; stroke:none;" d="M115.333 75.6667L115.667 76.3333L115.333 75.6667z"/>
<path style="fill:#9d9d9d; stroke:none;" d="M39.3333 76.6667L39.6667 77.3333L39.3333 76.6667z"/>
<path style="fill:#2d2d2d; stroke:none;" d="M115 77L116 78L115 77z"/>
<path style="fill:#5d5d5d; stroke:none;" d="M39 78L39 86L40 86L39 78z"/>
<path style="fill:#9d9d9d; stroke:none;" d="M39.3333 86.6667L39.6667 87.3333L39.3333 86.6667z"/>
<path style="fill:#2d2d2d; stroke:none;" d="M115 86L116 87L115 86z"/>
<path style="fill:#5d5d5d; stroke:none;" d="M115.333 87.6667L115.667 88.3333L115.333 87.6667z"/>
<path style="fill:#9d9d9d; stroke:none;" d="M115.333 89.6667L115.667 90.3333L115.333 89.6667z"/>
<path style="fill:#2d2d2d; stroke:none;" d="M40 90L41 91L40 90z"/>
<path style="fill:#5d5d5d; stroke:none;" d="M40 91L41 92L40 91z"/>
<path style="fill:#9d9d9d; stroke:none;" d="M40 92L41 93L40 92z"/>
<path style="fill:#5d5d5d; stroke:none;" d="M114 92L115 93L114 92z"/>
<path style="fill:#9d9d9d; stroke:none;" d="M114 93L115 94L114 93z"/>
<path style="fill:#5d5d5d; stroke:none;" d="M41 94L42 95L41 94z"/>
<path style="fill:#9d9d9d; stroke:none;" d="M41 95L42 96L41 95z"/>
<path style="fill:#2d2d2d; stroke:none;" d="M113 95L114 96L113 95z"/>
<path style="fill:#9d9d9d; stroke:none;" d="M113 96L114 97L113 96z"/>
<path style="fill:#5d5d5d; stroke:none;" d="M42 97L43 98L42 97M112 98L113 99L112 98M43 99L44 100L43 99z"/>
<path style="fill:#9d9d9d; stroke:none;" d="M43 100L44 101L43 100z"/>
<path style="fill:#5d5d5d; stroke:none;" d="M111 100L112 101L111 100M44 101L45 102L44 101z"/>
<path style="fill:#9d9d9d; stroke:none;" d="M110 102L111 103L110 102M45 103L46 104L45 103z"/>
<path style="fill:#2d2d2d; stroke:none;" d="M109 103L110 104L109 103M46 104L47 105L46 104z"/>
<path style="fill:#9d9d9d; stroke:none;" d="M108 105L109 106L108 105M47 106L48 107L47 106z"/>
<path style="fill:#5d5d5d; stroke:none;" d="M107 106L108 107L107 106z"/>
<path style="fill:#9d9d9d; stroke:none;" d="M48 107L49 108L48 107z"/>
<path style="fill:#2d2d2d; stroke:none;" d="M106 107L107 108L106 107z"/>
<path style="fill:#5d5d5d; stroke:none;" d="M49 108L50 109L49 108z"/>
<path style="fill:#2d2d2d; stroke:none;" d="M105 108L106 109L105 108z"/>
<path style="fill:#5d5d5d; stroke:none;" d="M50 109L51 110L50 109z"/>
<path style="fill:#2d2d2d; stroke:none;" d="M104 109L105 110L104 109z"/>
<path style="fill:#5d5d5d; stroke:none;" d="M51 110L52 111L51 110z"/>
<path style="fill:#2d2d2d; stroke:none;" d="M103 110L104 111L103 110z"/>
<path style="fill:#9d9d9d; stroke:none;" d="M52 111L53 112L52 111z"/>
<path style="fill:#2d2d2d; stroke:none;" d="M102 111L103 112L102 111z"/>
<path style="fill:#9d9d9d; stroke:none;" d="M53 112L54 113L53 112z"/>
<path style="fill:#5d5d5d; stroke:none;" d="M101 112L102 113L101 112z"/>
<path style="fill:#2d2d2d; stroke:none;" d="M55 113L56 114L55 113z"/>
<path style="fill:#9d9d9d; stroke:none;" d="M100 113L101 114L100 113z"/>
<path style="fill:#5d5d5d; stroke:none;" d="M56 114L57 115L56 114z"/>
<path style="fill:#2d2d2d; stroke:none;" d="M98 114L99 115L98 114z"/>
<path style="fill:#9d9d9d; stroke:none;" d="M99 114L100 115L99 114M57 115L58 116L57 115z"/>
<path style="fill:#2d2d2d; stroke:none;" d="M58 115L59 116L58 115z"/>
<path style="fill:#9d9d9d; stroke:none;" d="M97 115L98 116L97 115M59 116L60 117L59 116z"/>
<path style="fill:#5d5d5d; stroke:none;" d="M95 116L96 117L95 116z"/>
<path style="fill:#9d9d9d; stroke:none;" d="M61 117L62 118L61 117z"/>
<path style="fill:#2d2d2d; stroke:none;" d="M62 117L63 118L62 117z"/>
<path style="fill:#5d5d5d; stroke:none;" d="M93 117L94 118L93 117z"/>
<path style="fill:#9d9d9d; stroke:none;" d="M63 118L64 119L63 118z"/>
<path style="fill:#5d5d5d; stroke:none;" d="M64 118L65 119L64 118z"/>
<path style="fill:#2d2d2d; stroke:none;" d="M90 118L91 119L90 118z"/>
<path style="fill:#9d9d9d; stroke:none;" d="M91 118L92 119L91 118M66 119L67 120L66 119z"/>
<path style="fill:#5d5d5d; stroke:none;" d="M67 119L68 120L67 119z"/>
<path style="fill:#2d2d2d; stroke:none;" d="M87 119L88 120L87 119z"/>
<path style="fill:#5d5d5d; stroke:none;" d="M88 119L89 120L88 119z"/>
<path style="fill:#9d9d9d; stroke:none;" d="M89 119L90 120L89 119M70 120L71 121L70 120z"/>
<path style="fill:#5d5d5d; stroke:none;" d="M71.6667 120.333L72.3333 120.667L71.6667 120.333z"/>
<path style="fill:#2d2d2d; stroke:none;" d="M73 120L74 121L73 120z"/>
</svg>
