<?xml version="1.0" encoding="UTF-8" standalone="no"?>
<!DOCTYPE svg PUBLIC "-//W3C//DTD SVG 1.1//EN" "http://www.w3.org/Graphics/SVG/1.1/DTD/svg11.dtd">
<svg xmlns="http://www.w3.org/2000/svg" version="1.1" viewBox="0 0 98 98" width="98.0pt" height="98.0pt" xmlns:xlink="http://www.w3.org/1999/xlink">
<defs>
<path d="M 0.00 0.00 L 98.00 0.00 L 98.00 98.00 L 0.00 98.00 L 0.00 0.00 Z M 47.03 47.84 C 42.27 43.02 37.46 38.27 32.74 33.41 C 28.15 33.38 23.57 33.35 18.98 33.44 C 14.36 38.16 9.30 42.56 5.19 47.73 C 8.08 46.29 10.90 46.76 14.00 46.70 C 20.50 46.69 27.00 46.81 33.49 46.67 C 40.22 52.90 46.45 59.65 53.00 66.06 C 53.97 67.11 55.67 66.73 56.97 66.84 C 68.77 66.66 80.60 67.06 92.38 66.63 C 85.89 60.35 79.55 53.88 73.19 47.47 C 71.08 47.42 68.97 47.40 66.85 47.35 C 73.82 40.89 80.45 34.02 87.30 27.43 C 80.90 27.68 74.50 27.44 68.11 27.56 C 67.04 27.47 66.16 28.77 65.40 29.39 C 59.39 35.66 53.02 41.55 47.03 47.84 Z" id="p0-duckhigh" />
<path d="M 68.11 27.56 C 74.50 27.44 80.90 27.68 87.30 27.43 C 80.45 34.02 73.82 40.89 66.85 47.35 C 68.97 47.40 71.08 47.42 73.19 47.47 C 79.55 53.88 85.89 60.35 92.38 66.63 C 80.60 67.06 68.77 66.66 56.97 66.84 C 55.67 66.73 53.97 67.11 53.00 66.06 C 46.45 59.65 40.22 52.90 33.49 46.67 C 27.00 46.81 20.50 46.69 14.00 46.70 C 10.90 46.76 8.08 46.29 5.19 47.73 C 9.30 42.56 14.36 38.16 18.98 33.44 C 23.57 33.35 28.15 33.38 32.74 33.41 C 37.46 38.27 42.27 43.02 47.03 47.84 C 53.02 41.55 59.39 35.66 65.40 29.39 C 66.16 28.77 67.04 27.47 68.11 27.56 Z" id="p1-duckhigh" />
</defs>
<g stroke-width="10pt">
<use stroke="#ffffff" xlink:href="#p0-duckhigh" />
<use stroke="#050608" xlink:href="#p1-duckhigh" />
</g>
<g>
<use fill="#ffffff" xlink:href="#p0-duckhigh" />
<use fill="#050608" xlink:href="#p1-duckhigh" />
</g>
</svg>