<?xml version="1.0" encoding="UTF-8" standalone="no"?>
<!DOCTYPE svg PUBLIC "-//W3C//DTD SVG 1.1//EN" "http://www.w3.org/Graphics/SVG/1.1/DTD/svg11.dtd">
<svg xmlns="http://www.w3.org/2000/svg" version="1.1" viewBox="0 0 98 98" width="98.0pt" height="98.0pt" xmlns:xlink="http://www.w3.org/1999/xlink">
<defs>
<path d="M 0.00 0.00 L 98.00 0.00 L 98.00 98.00 L 0.00 98.00 L 0.00 0.00 Z M 5.61 31.33 C 12.10 37.65 18.42 44.12 24.82 50.53 C 26.92 50.57 29.01 50.59 31.10 50.62 C 24.23 57.18 17.53 63.94 10.71 70.56 C 17.37 70.38 24.04 70.48 30.70 70.47 C 37.38 63.62 44.33 57.05 50.97 50.16 C 55.74 54.98 60.54 59.76 65.29 64.60 C 69.84 64.62 74.39 64.63 78.94 64.58 C 83.68 59.95 88.54 55.40 92.86 50.37 C 91.02 51.04 89.06 51.35 86.99 51.32 C 79.48 51.32 71.98 51.18 64.48 51.33 C 57.78 45.08 51.55 38.34 44.99 31.95 C 44.06 30.90 42.29 31.29 41.01 31.17 C 29.22 31.31 17.40 30.99 5.61 31.33 Z" id="p0-ducklow" />
<path d="M 5.61 31.33 C 17.40 30.99 29.22 31.31 41.01 31.17 C 42.29 31.29 44.06 30.90 44.99 31.95 C 51.55 38.34 57.78 45.08 64.48 51.33 C 71.98 51.18 79.48 51.32 86.99 51.32 C 89.06 51.35 91.02 51.04 92.86 50.37 C 88.54 55.40 83.68 59.95 78.94 64.58 C 74.39 64.63 69.84 64.62 65.29 64.60 C 60.54 59.76 55.74 54.98 50.97 50.16 C 44.33 57.05 37.38 63.62 30.70 70.47 C 24.04 70.48 17.37 70.38 10.71 70.56 C 17.53 63.94 24.23 57.18 31.10 50.62 C 29.01 50.59 26.92 50.57 24.82 50.53 C 18.42 44.12 12.10 37.65 5.61 31.33 Z" id="p1-ducklow" />
</defs>
<g stroke-width="10pt">
<use stroke="#ffffff" xlink:href="#p0-ducklow" />
<use stroke="#050608" xlink:href="#p1-ducklow" />
</g>
<g>
<use fill="#ffffff" xlink:href="#p0-ducklow" />
<use fill="#050608" xlink:href="#p1-ducklow" />
</g>
</svg>