<?xml version="1.0" encoding="utf-8"?>
<!-- Generator: Adobe Illustrator 25.2.0, SVG Export Plug-In . SVG Version: 6.00 Build 0)  -->
<svg version="1.1" id="Layer_1" xmlns="http://www.w3.org/2000/svg" xmlns:xlink="http://www.w3.org/1999/xlink" x="0px" y="0px"
	 viewBox="0 0 297 297" style="enable-background:new 0 0 297 297;" xml:space="preserve">
<g>
	<linearGradient id="SVGID_1_" gradientUnits="userSpaceOnUse" x1="148.5" y1="294.5" x2="148.5" y2="2.5">
		<stop  offset="0" style="stop-color:#FFC700"/>
		<stop  offset="1" style="stop-color:#FFFFFF"/>
	</linearGradient>
	<circle style="fill:url(#SVGID_1_);" cx="148.5" cy="148.5" r="146"/>
	<path d="M148.5,5c38.33,0,74.37,14.93,101.47,42.03C277.07,74.13,292,110.17,292,148.5s-14.93,74.37-42.03,101.47
		C222.87,277.07,186.83,292,148.5,292s-74.37-14.93-101.47-42.03C19.93,222.87,5,186.83,5,148.5S19.93,74.13,47.03,47.03
		C74.13,19.93,110.17,5,148.5,5 M148.5,0C66.49,0,0,66.49,0,148.5S66.49,297,148.5,297S297,230.51,297,148.5S230.51,0,148.5,0
		L148.5,0z"/>
</g>
<g>
	<ellipse cx="98.5" cy="99.5" rx="13" ry="48"/>
	<path d="M98.5,52c6.04,0,12.5,19.09,12.5,47.5S104.54,147,98.5,147S86,127.91,86,99.5S92.46,52,98.5,52 M98.5,51
		C91.04,51,85,72.71,85,99.5S91.04,148,98.5,148S112,126.29,112,99.5S105.96,51,98.5,51L98.5,51z"/>
</g>
<g>
	<ellipse cx="195.5" cy="99.5" rx="13" ry="48"/>
	<path d="M195.5,52c6.04,0,12.5,19.09,12.5,47.5s-6.46,47.5-12.5,47.5S183,127.91,183,99.5S189.46,52,195.5,52 M195.5,51
		c-7.46,0-13.5,21.71-13.5,48.5s6.04,48.5,13.5,48.5S209,126.29,209,99.5S202.96,51,195.5,51L195.5,51z"/>
</g>
<path style="fill:none;stroke:#000000;stroke-width:6;stroke-miterlimit:10;" d="M44.5,175.5c12.52,48.32,56.7,81.91,106,81
	c47.87-0.89,89.87-34.1,102-81"/>
<path style="fill:none;stroke:#000000;stroke-width:6;stroke-miterlimit:10;" d="M32.5,185.5c0.39-0.97,2.74-6.59,9-9
	c7.72-2.97,14.46,1.62,15,2"/>
<path style="fill:none;stroke:#000000;stroke-width:6;stroke-miterlimit:10;" d="M263.97,181.45c-0.39-0.97-2.74-6.59-9-9
	c-7.72-2.97-14.46,1.62-15,2"/>
</svg>
