<?xml version="1.0" encoding="UTF-8" standalone="no"?>
<!DOCTYPE svg PUBLIC "-//W3C//DTD SVG 1.1//EN" "http://www.w3.org/Graphics/SVG/1.1/DTD/svg11.dtd">
<svg xmlns="http://www.w3.org/2000/svg" version="1.1" viewBox="0 0 120 120" width="120.0pt" height="120.0pt" xmlns:xlink="http://www.w3.org/1999/xlink">
<defs>
<path d="M 0.00 0.00 L 120.00 0.00 L 120.00 120.00 L 0.00 120.00 L 0.00 0.00 Z M 55.41 12.51 C 37.24 14.59 21.59 27.58 15.97 44.95 C 12.28 56.70 13.14 70.17 18.89 81.13 C 23.47 90.11 30.94 97.55 39.99 102.00 C 53.90 109.01 71.30 108.60 84.83 100.82 C 96.62 94.20 105.37 82.22 107.96 68.93 C 109.74 59.81 108.93 50.22 105.35 41.62 C 99.67 27.73 87.18 16.91 72.53 13.49 C 66.96 12.13 61.10 11.90 55.41 12.51 Z" id="p0" />
<path d="M 55.41 12.51 C 61.10 11.90 66.96 12.13 72.53 13.49 C 87.18 16.91 99.67 27.73 105.35 41.62 C 108.93 50.22 109.74 59.81 107.96 68.93 C 105.37 82.22 96.62 94.20 84.83 100.82 C 71.30 108.60 53.90 109.01 39.99 102.00 C 30.94 97.55 23.47 90.11 18.89 81.13 C 13.14 70.17 12.28 56.70 15.97 44.95 C 21.59 27.58 37.24 14.59 55.41 12.51 Z" id="p1" />
</defs>
<g stroke-width="10pt">
<use stroke="#ffffff" xlink:href="#p0" />
<use stroke="#dab1c1" xlink:href="#p1" />
</g>
<g>
<use fill="#ffffff" xlink:href="#p0" />
<use fill="#dab1c1" xlink:href="#p1" />
</g>
</svg>