<?xml version="1.0" encoding="UTF-8" standalone="no"?>
<!DOCTYPE svg PUBLIC "-//W3C//DTD SVG 1.1//EN" "http://www.w3.org/Graphics/SVG/1.1/DTD/svg11.dtd">
<svg xmlns="http://www.w3.org/2000/svg" version="1.1" viewBox="0 0 120 120" width="120.0pt" height="120.0pt" xmlns:xlink="http://www.w3.org/1999/xlink">
<defs>
<path d="M 0.00 0.00 L 120.00 0.00 L 120.00 120.00 L 0.00 120.00 L 0.00 0.00 Z M 54.44 13.50 C 37.64 15.31 22.73 26.65 16.34 42.28 C 11.09 55.07 11.81 70.32 18.53 82.45 C 26.59 97.36 42.94 107.36 60.00 106.83 C 77.33 107.29 93.78 96.99 101.70 81.70 C 106.99 71.84 108.13 60.04 105.72 49.20 C 101.87 32.68 88.53 18.99 72.09 14.78 C 66.31 13.11 60.41 13.15 54.44 13.50 Z" id="p0" />
<path d="M 54.44 13.50 C 60.41 13.15 66.31 13.11 72.09 14.78 C 88.53 18.99 101.87 32.68 105.72 49.20 C 108.13 60.04 106.99 71.84 101.70 81.70 C 93.78 96.99 77.33 107.29 60.00 106.83 C 42.94 107.36 26.59 97.36 18.53 82.45 C 11.81 70.32 11.09 55.07 16.34 42.28 C 22.73 26.65 37.64 15.31 54.44 13.50 Z" id="p1" />
</defs>
<g stroke-width="10pt">
<use stroke="#ffffff" xlink:href="#p0" />
<use stroke="#9d42bd" xlink:href="#p1" />
</g>
<g>
<use fill="#ffffff" xlink:href="#p0" />
<use fill="#9d42bd" xlink:href="#p1" />
</g>
</svg>