<?xml version="1.0" encoding="UTF-8" standalone="no"?>
<!DOCTYPE svg PUBLIC "-//W3C//DTD SVG 1.1//EN" "http://www.w3.org/Graphics/SVG/1.1/DTD/svg11.dtd">
<svg xmlns="http://www.w3.org/2000/svg" version="1.1" viewBox="0 0 120 120" width="120.0pt" height="120.0pt" xmlns:xlink="http://www.w3.org/1999/xlink">
<defs>
<path d="M 0.00 0.00 L 120.00 0.00 L 120.00 120.00 L 0.00 120.00 L 0.00 0.00 Z M 54.43 12.52 C 41.87 13.90 30.08 20.25 22.11 30.07 C 9.78 44.84 7.94 66.88 17.42 83.58 C 26.36 99.72 44.61 109.54 63.02 108.17 C 81.39 107.27 98.35 95.11 105.07 77.99 C 108.37 70.03 108.95 61.47 107.93 52.98 C 105.69 37.92 95.92 24.54 82.37 17.64 C 73.73 13.09 64.10 11.68 54.43 12.52 Z" id="p0" />
<path d="M 54.43 12.52 C 64.10 11.68 73.73 13.09 82.37 17.64 C 95.92 24.54 105.69 37.92 107.93 52.98 C 108.95 61.47 108.37 70.03 105.07 77.99 C 98.35 95.11 81.39 107.27 63.02 108.17 C 44.61 109.54 26.36 99.72 17.42 83.58 C 7.94 66.88 9.78 44.84 22.11 30.07 C 30.08 20.25 41.87 13.90 54.43 12.52 Z" id="p1" />
</defs>
<g stroke-width="10pt">
<use stroke="#ffffff" xlink:href="#p0" />
<use stroke="#ff2c0a" xlink:href="#p1" />
</g>
<g>
<use fill="#ffffff" xlink:href="#p0" />
<use fill="#ff2c0a" xlink:href="#p1" />
</g>
</svg>