<?xml version="1.0" encoding="UTF-8" standalone="no"?>
<!DOCTYPE svg PUBLIC "-//W3C//DTD SVG 1.1//EN" "http://www.w3.org/Graphics/SVG/1.1/DTD/svg11.dtd">
<svg xmlns="http://www.w3.org/2000/svg" version="1.1" viewBox="0 0 120 120" width="120.0pt" height="120.0pt" xmlns:xlink="http://www.w3.org/1999/xlink">
<defs>
<path d="M 0.00 0.00 L 120.00 0.00 L 120.00 120.00 L 0.00 120.00 L 0.00 0.00 Z M 54.46 14.52 C 37.80 16.97 23.34 28.74 17.56 44.54 C 12.93 57.11 13.94 71.74 20.54 83.43 C 28.73 98.22 45.00 107.95 62.00 107.40 C 78.40 107.67 94.06 98.36 102.21 84.23 C 111.35 68.86 110.48 48.49 100.08 33.95 C 94.13 25.57 85.59 19.16 75.73 16.17 C 68.94 13.88 61.53 13.80 54.46 14.52 Z" id="p0" />
<path d="M 54.46 14.52 C 61.53 13.80 68.94 13.88 75.73 16.17 C 85.59 19.16 94.13 25.57 100.08 33.95 C 110.48 48.49 111.35 68.86 102.21 84.23 C 94.06 98.36 78.40 107.67 62.00 107.40 C 45.00 107.95 28.73 98.22 20.54 83.43 C 13.94 71.74 12.93 57.11 17.56 44.54 C 23.34 28.74 37.80 16.97 54.46 14.52 Z" id="p1" />
</defs>
<g stroke-width="10pt">
<use stroke="#ffffff" xlink:href="#p0" />
<use stroke="#bf2460" xlink:href="#p1" />
</g>
<g>
<use fill="#ffffff" xlink:href="#p0" />
<use fill="#bf2460" xlink:href="#p1" />
</g>
</svg>