<?xml version="1.0" standalone="no"?>
<!DOCTYPE svg PUBLIC "-//W3C//DTD SVG 20010904//EN"
 "http://www.w3.org/TR/2001/REC-SVG-20010904/DTD/svg10.dtd">
<svg version="1.0" xmlns="http://www.w3.org/2000/svg"
 width="160.000000pt" height="160.000000pt" viewBox="0 0 160.000000 160.000000"
 preserveAspectRatio="xMidYMid meet">
<metadata>
Created by potrace 1.16, written by Peter Selinger 2001-2019
</metadata>
<g transform="translate(0.000000,160.000000) scale(0.100000,-0.100000)"
fill="#000000" stroke="none">
<path d="M542 1308 c-9 -11 46 -71 273 -298 157 -157 285 -288 285 -291 0 -4
-124 -51 -275 -105 -217 -78 -275 -103 -275 -116 0 -10 6 -18 13 -18 6 0 142
47 301 105 159 58 291 105 293 105 22 0 -44 72 -300 328 -243 243 -306 301
-315 290z"/>
</g>
</svg>
