<?xml version="1.0" standalone="no"?>
<!DOCTYPE svg PUBLIC "-//W3C//DTD SVG 20010904//EN"
 "http://www.w3.org/TR/2001/REC-SVG-20010904/DTD/svg10.dtd">
<svg version="1.0" xmlns="http://www.w3.org/2000/svg"
 width="160.000000pt" height="160.000000pt" viewBox="0 0 160.000000 160.000000"
 preserveAspectRatio="xMidYMid meet">
<metadata>
Created by potrace 1.16, written by Peter Selinger 2001-2019
</metadata>
<g transform="translate(0.000000,160.000000) scale(0.100000,-0.100000)"
fill="#000000" stroke="none">
<path d="M254 1399 c-4 -7 112 -130 282 -300 158 -158 286 -291 282 -294 -3
-3 -129 -40 -280 -82 -245 -67 -275 -78 -271 -94 3 -11 7 -19 10 -19 2 0 99
27 216 59 286 80 288 80 284 73 -3 -4 -66 -110 -142 -235 -109 -180 -135 -231
-124 -238 8 -5 16 -9 19 -8 3 0 73 113 157 253 l152 252 173 48 c402 111 428
119 428 132 0 7 -4 15 -9 18 -5 3 -129 -28 -277 -69 -147 -41 -269 -73 -272
-71 -2 3 35 69 82 147 47 78 83 146 80 151 -14 23 -38 -4 -114 -129 -45 -76
-84 -140 -87 -143 -2 -2 -131 123 -286 278 -155 155 -285 282 -289 282 -4 0
-10 -5 -14 -11z"/>
</g>
</svg>
