<?xml version="1.0" standalone="no"?>
<!DOCTYPE svg PUBLIC "-//W3C//DTD SVG 20010904//EN"
 "http://www.w3.org/TR/2001/REC-SVG-20010904/DTD/svg10.dtd">
<svg version="1.0" xmlns="http://www.w3.org/2000/svg"
 width="160.000000pt" height="160.000000pt" viewBox="0 0 160.000000 160.000000"
 preserveAspectRatio="xMidYMid meet">

<g transform="translate(0.000000,160.000000) scale(0.100000,-0.100000)"
fill="#000000" stroke="none">
<path d="M482 1137 c-9 -10 8 -32 78 -102 50 -49 90 -94 90 -99 0 -6 -14 -24
-30 -41 -25 -26 -28 -34 -17 -43 11 -9 20 -5 42 18 16 17 34 30 40 30 13 0 65
-52 65 -65 0 -5 -14 -23 -30 -40 -25 -26 -28 -34 -17 -43 11 -9 20 -5 42 18
35 37 44 37 78 2 34 -35 34 -42 -3 -77 -23 -22 -27 -31 -18 -42 9 -11 17 -8
43 17 17 16 35 30 40 30 5 0 65 -55 132 -122 97 -97 125 -120 135 -110 10 10
9 16 -5 29 -16 16 -15 19 20 55 31 32 34 39 23 53 -12 14 -17 12 -52 -22 l-38
-37 -170 169 -170 169 35 36 c19 20 35 41 35 47 0 28 -25 22 -61 -13 l-39 -38
-57 57 -57 57 44 45 c34 35 41 48 32 57 -9 9 -22 2 -57 -32 l-45 -44 -48 47
c-40 39 -51 45 -60 34z"/>
</g>
</svg>
