<?xml version="1.0" standalone="no"?>
<!DOCTYPE svg PUBLIC "-//W3C//DTD SVG 20010904//EN"
 "http://www.w3.org/TR/2001/REC-SVG-20010904/DTD/svg10.dtd">
<svg version="1.0" xmlns="http://www.w3.org/2000/svg"
 width="160.000000pt" height="160.000000pt" viewBox="0 0 160.000000 160.000000"
 preserveAspectRatio="xMidYMid meet">

<g transform="translate(0.000000,160.000000) scale(0.100000,-0.100000)"
fill="#000000" stroke="none">
<path d="M482 1128 c-10 -10 10 -35 95 -120 l107 -108 -39 -40 c-30 -31 -36
-43 -27 -52 9 -9 21 -3 52 27 l40 39 37 -37 37 -37 -39 -40 c-30 -31 -36 -43
-27 -52 9 -9 21 -3 52 27 l40 39 37 -37 37 -37 -39 -40 c-30 -31 -36 -43 -27
-52 9 -9 21 -3 52 27 l40 39 37 -37 37 -37 -39 -40 c-30 -31 -36 -43 -27 -52
9 -9 21 -3 52 27 l40 39 65 -64 c51 -51 67 -62 77 -52 10 10 8 17 -10 34 l-22
22 37 38 c31 32 34 39 23 53 -12 14 -17 12 -52 -22 l-38 -37 -155 154 -155
154 37 38 c29 30 34 41 25 50 -9 9 -20 4 -50 -25 l-38 -37 -59 60 -59 60 44
45 c34 35 41 48 32 57 -9 9 -22 2 -57 -32 l-45 -44 -58 57 c-46 45 -60 55 -70
45z"/>
</g>
</svg>
