<?xml version="1.0" standalone="no"?>
<!DOCTYPE svg PUBLIC "-//W3C//DTD SVG 20010904//EN"
 "http://www.w3.org/TR/2001/REC-SVG-20010904/DTD/svg10.dtd">
<svg version="1.0" xmlns="http://www.w3.org/2000/svg"
 width="160.000000pt" height="160.000000pt" viewBox="0 0 160.000000 160.000000"
 preserveAspectRatio="xMidYMid meet">

<g transform="translate(0.000000,160.000000) scale(0.100000,-0.100000)"
fill="#000000" stroke="none">
<path d="M464 1129 c-4 -6 31 -48 80 -98 l86 -86 -37 -37 c-31 -32 -35 -39
-23 -53 12 -14 17 -12 52 22 l38 37 35 -34 35 -34 -37 -38 c-31 -32 -34 -39
-23 -53 12 -14 17 -12 52 22 l38 37 183 -182 c163 -163 185 -181 197 -167 12
14 -11 41 -195 225 l-209 210 32 33 c18 18 32 38 32 44 0 27 -24 23 -59 -11
l-37 -36 -39 40 -39 40 44 45 c37 38 41 46 30 60 -12 14 -18 11 -60 -30 l-46
-45 -49 50 c-50 50 -68 59 -81 39z"/>
</g>
</svg>
