<?xml version="1.0" standalone="no"?>
<!DOCTYPE svg PUBLIC "-//W3C//DTD SVG 20010904//EN"
 "http://www.w3.org/TR/2001/REC-SVG-20010904/DTD/svg10.dtd">
<svg version="1.0" xmlns="http://www.w3.org/2000/svg"
 width="160.000000pt" height="160.000000pt" viewBox="0 0 160.000000 160.000000"
 preserveAspectRatio="xMidYMid meet">

<g transform="translate(0.000000,160.000000) scale(0.100000,-0.100000)"
fill="#000000" stroke="none">
<path d="M524 1109 c-4 -6 29 -46 75 -93 l81 -81 -32 -33 c-25 -25 -30 -34
-20 -44 9 -9 18 -6 40 15 15 15 32 27 37 27 5 0 24 -14 42 -32 l33 -32 -32
-33 c-25 -26 -29 -36 -20 -45 9 -9 18 -6 40 15 15 15 32 27 37 27 5 0 24 -14
42 -32 l33 -32 -32 -33 c-25 -26 -29 -36 -20 -45 9 -9 18 -6 40 15 15 15 32
27 38 27 5 0 70 -61 144 -135 107 -107 137 -132 148 -123 11 9 -29 54 -205
230 l-217 218 37 38 c29 30 34 41 25 50 -9 9 -20 4 -50 -25 l-38 -37 -52 52
-52 52 39 40 c30 31 36 43 27 52 -9 9 -21 3 -52 -27 l-40 -39 -38 37 c-41 40
-47 43 -58 26z"/>
</g>
</svg>
