<?xml version="1.0" standalone="no"?>
<!DOCTYPE svg PUBLIC "-//W3C//DTD SVG 20010904//EN"
 "http://www.w3.org/TR/2001/REC-SVG-20010904/DTD/svg10.dtd">
<svg version="1.0" xmlns="http://www.w3.org/2000/svg"
 width="160.000000pt" height="160.000000pt" viewBox="0 0 160.000000 160.000000"
 preserveAspectRatio="xMidYMid meet">
<metadata>
Created by potrace 1.16, written by Peter Selinger 2001-2019
</metadata>
<g transform="translate(0.000000,160.000000) scale(0.100000,-0.100000)"
fill="#000000" stroke="none">
<path d="M232 1398 c-10 -10 49 -73 275 -300 173 -174 284 -291 278 -296 -6
-5 -130 -42 -277 -82 -250 -69 -290 -85 -259 -105 8 -4 416 102 499 130 7 3
11 1 9 -3 -3 -4 -66 -108 -141 -231 -124 -203 -150 -261 -114 -249 7 3 79 114
160 248 81 134 152 248 158 254 7 7 45 -24 120 -99 95 -95 111 -107 125 -95
14 12 5 24 -81 111 -54 54 -96 100 -93 102 3 3 318 92 512 145 19 5 21 11 9
29 -6 9 -76 -6 -277 -62 -148 -41 -273 -75 -277 -75 -4 0 31 64 78 141 46 78
86 146 87 152 1 6 -5 12 -14 14 -12 3 -37 -30 -90 -117 l-74 -122 -3 226 c-2
218 -3 226 -22 226 -19 0 -20 -7 -20 -237 l0 -238 -273 273 c-149 149 -275
272 -278 272 -3 0 -10 -5 -17 -12z"/>
</g>
</svg>
