<?xml version="1.0" standalone="no"?>
<!DOCTYPE svg PUBLIC "-//W3C//DTD SVG 20010904//EN"
 "http://www.w3.org/TR/2001/REC-SVG-20010904/DTD/svg10.dtd">
<svg version="1.0" xmlns="http://www.w3.org/2000/svg"
 width="160.000000pt" height="160.000000pt" viewBox="0 0 160.000000 160.000000"
 preserveAspectRatio="xMidYMid meet">
<metadata>
Created by potrace 1.16, written by Peter Selinger 2001-2019
</metadata>
<g transform="translate(0.000000,160.000000) scale(0.100000,-0.100000)"
fill="#000000" stroke="none">
<path d="M264 1399 c-4 -7 112 -130 282 -300 203 -204 285 -292 276 -298 -7
-4 -132 -41 -277 -81 -248 -69 -288 -85 -256 -104 7 -5 370 91 494 130 11 4
-33 -78 -123 -226 -127 -210 -155 -270 -119 -258 6 2 78 113 159 247 81 133
153 248 159 254 8 8 38 -15 119 -96 97 -96 110 -106 122 -92 12 14 2 28 -80
110 -52 52 -92 96 -89 99 2 2 122 36 265 76 233 65 261 75 257 91 -3 11 -7 19
-9 19 -2 0 -125 -34 -275 -76 -149 -41 -272 -74 -274 -72 -3 3 51 94 156 265
19 31 19 32 1 42 -16 8 -28 -7 -101 -130 -46 -77 -87 -141 -91 -144 -3 -2
-132 122 -286 276 -153 153 -284 279 -291 279 -6 0 -15 -5 -19 -11z"/>
</g>
</svg>
