<?xml version="1.0" standalone="no"?>
<!DOCTYPE svg PUBLIC "-//W3C//DTD SVG 20010904//EN"
 "http://www.w3.org/TR/2001/REC-SVG-20010904/DTD/svg10.dtd">
<svg version="1.0" xmlns="http://www.w3.org/2000/svg"
 width="160.000000pt" height="160.000000pt" viewBox="0 0 160.000000 160.000000"
 preserveAspectRatio="xMidYMid meet">
<metadata>
Created by potrace 1.16, written by Peter Selinger 2001-2019
</metadata>
<g transform="translate(0.000000,160.000000) scale(0.100000,-0.100000)"
fill="#000000" stroke="none">
<path d="M222 1408 c-10 -10 47 -72 280 -305 280 -280 291 -292 267 -302 -21
-10 -523 -151 -534 -151 -7 0 -6 -13 3 -27 6 -10 66 4 242 53 129 35 243 67
253 70 11 4 -32 -77 -123 -227 -127 -209 -155 -269 -119 -257 7 2 75 109 153
237 l141 232 3 -120 c2 -113 4 -121 22 -121 19 0 20 7 20 142 l0 143 105 -105
c83 -83 107 -102 117 -92 10 10 -7 32 -82 107 -52 52 -92 97 -89 99 2 3 123
38 267 77 144 40 262 76 262 79 -1 33 -21 30 -290 -45 -150 -42 -274 -75 -275
-73 -2 2 36 69 85 148 80 129 88 146 73 157 -14 11 -24 0 -76 -85 -32 -53 -68
-110 -78 -127 -19 -30 -19 -29 -19 203 0 225 -1 232 -20 232 -19 0 -20 -7 -20
-242 l0 -243 -278 278 c-221 221 -280 275 -290 265z"/>
</g>
</svg>
